# Procedurally generated deciduous broadleaf canopy tree
# Format note: vt.x carries a custom 'heightT' material-blend scalar,
# not a real texture coordinate (see ObjTreeMeshLoader.java).
v 0.240000 0.000000 0.000000
v 0.070000 0.550000 0.000000
v 0.194164 0.000000 0.141068
v 0.056631 0.550000 0.041145
v 0.074164 0.000000 0.228254
v 0.021631 0.550000 0.066574
v -0.074164 0.000000 0.228254
v -0.021631 0.550000 0.066574
v -0.194164 0.000000 0.141068
v -0.056631 0.550000 0.041145
v -0.240000 0.000000 0.000000
v -0.070000 0.550000 0.000000
v -0.194164 0.000000 -0.141068
v -0.056631 0.550000 -0.041145
v -0.074164 0.000000 -0.228254
v -0.021631 0.550000 -0.066574
v 0.074164 0.000000 -0.228254
v 0.021631 0.550000 -0.066574
v 0.194164 0.000000 -0.141068
v 0.056631 0.550000 -0.041145
v 0.240000 0.000000 -0.000000
v 0.070000 0.550000 -0.000000
v -0.788597 0.950130 0.000000
v 0.788597 0.950130 0.000000
v -0.788597 0.609870 0.000000
v 0.788597 0.609870 0.000000
v 0.000000 0.674854 1.190911
v 0.000000 0.885146 1.190911
v 0.000000 0.674854 -1.190911
v 0.000000 0.885146 -1.190911
v 1.275976 0.780000 -0.736024
v 1.275976 0.780000 0.736024
v -1.275976 0.780000 -0.736024
v -1.275976 0.780000 0.736024
v -1.213525 0.880000 0.432624
v -0.750000 0.841803 1.132624
v -0.463525 0.941803 0.700000
v 0.463525 0.941803 0.700000
v 0.000000 0.980000 0.000000
v 0.463525 0.941803 -0.700000
v -0.463525 0.941803 -0.700000
v -0.750000 0.841803 -1.132624
v -1.213525 0.880000 -0.432624
v -1.500000 0.780000 0.000000
v 0.750000 0.841803 1.132624
v 1.213525 0.880000 0.432624
v -0.750000 0.718197 1.132624
v 0.000000 0.780000 1.400000
v -1.213525 0.680000 -0.432624
v -1.213525 0.680000 0.432624
v 0.000000 0.780000 -1.400000
v -0.750000 0.718197 -1.132624
v 1.213525 0.880000 -0.432624
v 0.750000 0.841803 -1.132624
v 1.213525 0.680000 0.432624
v 0.750000 0.718197 1.132624
v 0.463525 0.618197 0.700000
v -0.463525 0.618197 0.700000
v 0.000000 0.580000 0.000000
v -0.463525 0.618197 -0.700000
v 0.463525 0.618197 -0.700000
v 0.750000 0.718197 -1.132624
v 1.213525 0.680000 -0.432624
v 1.500000 0.780000 0.000000
v 0.642503 0.828883 0.000000
v 1.357497 0.828883 0.000000
v 0.642503 0.611117 0.000000
v 1.357497 0.611117 0.000000
v 1.000000 0.652706 0.544417
v 1.000000 0.787294 0.544417
v 1.000000 0.652706 -0.544417
v 1.000000 0.787294 -0.544417
v 1.578443 0.720000 -0.336468
v 1.578443 0.720000 0.336468
v 0.421557 0.720000 -0.336468
v 0.421557 0.720000 0.336468
v 0.449868 0.784000 0.197771
v 0.660000 0.759554 0.517771
v 0.789868 0.823554 0.320000
v 1.210132 0.823554 0.320000
v 1.000000 0.848000 0.000000
v 1.210132 0.823554 -0.320000
v 0.789868 0.823554 -0.320000
v 0.660000 0.759554 -0.517771
v 0.449868 0.784000 -0.197771
v 0.320000 0.720000 0.000000
v 1.340000 0.759554 0.517771
v 1.550132 0.784000 0.197771
v 0.660000 0.680446 0.517771
v 1.000000 0.720000 0.640000
v 0.449868 0.656000 -0.197771
v 0.449868 0.656000 0.197771
v 1.000000 0.720000 -0.640000
v 0.660000 0.680446 -0.517771
v 1.550132 0.784000 -0.197771
v 1.340000 0.759554 -0.517771
v 1.550132 0.656000 0.197771
v 1.340000 0.680446 0.517771
v 1.210132 0.616446 0.320000
v 0.789868 0.616446 0.320000
v 1.000000 0.592000 0.000000
v 0.789868 0.616446 -0.320000
v 1.210132 0.616446 -0.320000
v 1.340000 0.680446 -0.517771
v 1.550132 0.656000 -0.197771
v 1.680000 0.720000 0.000000
v -0.005503 0.830012 0.779423
v 1.005503 0.830012 0.779423
v -0.005503 0.522088 0.779423
v 1.005503 0.522088 0.779423
v 0.500000 0.580896 1.549231
v 0.500000 0.771203 1.549231
v 0.500000 0.580896 0.009614
v 0.500000 0.771203 0.009614
v 1.317921 0.676050 0.303655
v 1.317921 0.676050 1.255191
v -0.317921 0.676050 0.303655
v -0.317921 0.676050 1.255191
v -0.277889 0.766546 1.059072
v 0.019238 0.731980 1.511554
v 0.202873 0.822476 1.231905
v 0.797127 0.822476 1.231905
v 0.500000 0.857043 0.779423
v 0.797127 0.822476 0.326941
v 0.202873 0.822476 0.326941
v 0.019238 0.731980 0.047292
v -0.277889 0.766546 0.499774
v -0.461524 0.676050 0.779423
v 0.980762 0.731980 1.511554
v 1.277889 0.766546 1.059072
v 0.019238 0.620120 1.511554
v 0.500000 0.676050 1.684387
v -0.277889 0.585554 0.499774
v -0.277889 0.585554 1.059072
v 0.500000 0.676050 -0.125541
v 0.019238 0.620120 0.047292
v 1.277889 0.766546 0.499774
v 0.980762 0.731980 0.047292
v 1.277889 0.585554 1.059072
v 0.980762 0.620120 1.511554
v 0.797127 0.529624 1.231905
v 0.202873 0.529624 1.231905
v 0.500000 0.495057 0.779423
v 0.202873 0.529624 0.326941
v 0.797127 0.529624 0.326941
v 0.980762 0.620120 0.047292
v 1.277889 0.585554 0.499774
v 1.461524 0.676050 0.779423
v -0.953195 0.746617 0.779423
v -0.046805 0.746617 0.779423
v -0.953195 0.470557 0.779423
v -0.046805 0.470557 0.779423
v -0.500000 0.523279 1.469573
v -0.500000 0.693894 1.469573
v -0.500000 0.523279 0.089273
v -0.500000 0.693894 0.089273
v 0.233285 0.608587 0.352887
v 0.233285 0.608587 1.205959
v -1.233285 0.608587 0.352887
v -1.233285 0.608587 1.205959
v -1.197395 0.689719 1.030135
v -0.931014 0.658729 1.435795
v -0.766381 0.739861 1.185083
v -0.233619 0.739861 1.185083
v -0.500000 0.770851 0.779423
v -0.233619 0.739861 0.373763
v -0.766381 0.739861 0.373763
v -0.931014 0.658729 0.123051
v -1.197395 0.689719 0.528711
v -1.362028 0.608587 0.779423
v -0.068986 0.658729 1.435795
v 0.197395 0.689719 1.030135
v -0.931014 0.558444 1.435795
v -0.500000 0.608587 1.590743
v -1.197395 0.527455 0.528711
v -1.197395 0.527455 1.030135
v -0.500000 0.608587 -0.031897
v -0.931014 0.558444 0.123051
v 0.197395 0.689719 0.528711
v -0.068986 0.658729 0.123051
v 0.197395 0.527455 1.030135
v -0.068986 0.558444 1.435795
v -0.233619 0.477312 1.185083
v -0.766381 0.477312 1.185083
v -0.500000 0.446323 0.779423
v -0.766381 0.477312 0.373763
v -0.233619 0.477312 0.373763
v -0.068986 0.558444 0.123051
v 0.197395 0.527455 0.528711
v 0.362028 0.608587 0.779423
v -1.443627 0.751560 0.000000
v -0.556373 0.751560 0.000000
v -1.443627 0.481328 0.000000
v -0.556373 0.481328 0.000000
v -1.000000 0.532938 0.675580
v -1.000000 0.699950 0.675580
v -1.000000 0.532938 -0.675580
v -1.000000 0.699950 -0.675580
v -0.282196 0.616444 -0.417531
v -0.282196 0.616444 0.417531
v -1.717804 0.616444 -0.417531
v -1.717804 0.616444 0.417531
v -1.682672 0.695863 0.245419
v -1.421914 0.665528 0.642515
v -1.260757 0.744947 0.397096
v -0.739243 0.744947 0.397096
v -1.000000 0.775282 0.000000
v -0.739243 0.744947 -0.397096
v -1.260757 0.744947 -0.397096
v -1.421914 0.665528 -0.642515
v -1.682672 0.695863 -0.245419
v -1.843829 0.616444 0.000000
v -0.578086 0.665528 0.642515
v -0.317328 0.695863 0.245419
v -1.421914 0.567360 0.642515
v -1.000000 0.616444 0.794192
v -1.682672 0.537025 -0.245419
v -1.682672 0.537025 0.245419
v -1.000000 0.616444 -0.794192
v -1.421914 0.567360 -0.642515
v -0.317328 0.695863 -0.245419
v -0.578086 0.665528 -0.642515
v -0.317328 0.537025 0.245419
v -0.578086 0.567360 0.642515
v -0.739243 0.487941 0.397096
v -1.260757 0.487941 0.397096
v -1.000000 0.457606 0.000000
v -1.260757 0.487941 -0.397096
v -0.739243 0.487941 -0.397096
v -0.578086 0.567360 -0.642515
v -0.317328 0.537025 -0.245419
v -0.156171 0.616444 0.000000
v -1.008885 0.843103 -0.779423
v 0.008885 0.843103 -0.779423
v -1.008885 0.533119 -0.779423
v 0.008885 0.533119 -0.779423
v -0.500000 0.592321 -0.004465
v -0.500000 0.783901 -0.004465
v -0.500000 0.592321 -1.554381
v -0.500000 0.783901 -1.554381
v 0.323393 0.688111 -1.258373
v 0.323393 0.688111 -0.300473
v -1.323393 0.688111 -1.258373
v -1.323393 0.688111 -0.300473
v -1.283093 0.779213 -0.497903
v -0.983978 0.744415 -0.042394
v -0.799115 0.835517 -0.323914
v -0.200885 0.835517 -0.323914
v -0.500000 0.870315 -0.779423
v -0.200885 0.835517 -1.234932
v -0.799115 0.835517 -1.234932
v -0.983978 0.744415 -1.516452
v -1.283093 0.779213 -1.060943
v -1.467956 0.688111 -0.779423
v -0.016022 0.744415 -0.042394
v 0.283093 0.779213 -0.497903
v -0.983978 0.631807 -0.042394
v -0.500000 0.688111 0.131595
v -1.283093 0.597009 -1.060943
v -1.283093 0.597009 -0.497903
v -0.500000 0.688111 -1.690440
v -0.983978 0.631807 -1.516452
v 0.283093 0.779213 -1.060943
v -0.016022 0.744415 -1.516452
v 0.283093 0.597009 -0.497903
v -0.016022 0.631807 -0.042394
v -0.200885 0.540705 -0.323914
v -0.799115 0.540705 -0.323914
v -0.500000 0.505907 -0.779423
v -0.799115 0.540705 -1.234932
v -0.200885 0.540705 -1.234932
v -0.016022 0.631807 -1.516452
v 0.283093 0.597009 -1.060943
v 0.467956 0.688111 -0.779423
v 0.130749 0.831058 -0.779423
v 0.869251 0.831058 -0.779423
v 0.130749 0.606132 -0.779423
v 0.869251 0.606132 -0.779423
v 0.500000 0.649089 -0.217107
v 0.500000 0.788101 -0.217107
v 0.500000 0.649089 -1.341739
v 0.500000 0.788101 -1.341739
v 1.097461 0.718595 -1.126953
v 1.097461 0.718595 -0.431892
v -0.097461 0.718595 -1.126953
v -0.097461 0.718595 -0.431892
v -0.068219 0.784699 -0.575150
v 0.148821 0.759450 -0.244628
v 0.282960 0.825554 -0.448902
v 0.717040 0.825554 -0.448902
v 0.500000 0.850804 -0.779423
v 0.717040 0.825554 -1.109944
v 0.282960 0.825554 -1.109944
v 0.148821 0.759450 -1.314217
v -0.068219 0.784699 -0.983696
v -0.202357 0.718595 -0.779423
v 0.851179 0.759450 -0.244628
v 1.068219 0.784699 -0.575150
v 0.148821 0.677741 -0.244628
v 0.500000 0.718595 -0.118381
v -0.068219 0.652491 -0.983696
v -0.068219 0.652491 -0.575150
v 0.500000 0.718595 -1.440465
v 0.148821 0.677741 -1.314217
v 1.068219 0.784699 -0.983696
v 0.851179 0.759450 -1.314217
v 1.068219 0.652491 -0.575150
v 0.851179 0.677741 -0.244628
v 0.717040 0.611636 -0.448902
v 0.282960 0.611636 -0.448902
v 0.500000 0.586387 -0.779423
v 0.282960 0.611636 -1.109944
v 0.717040 0.611636 -1.109944
v 0.851179 0.677741 -1.314217
v 1.068219 0.652491 -0.983696
v 1.202357 0.718595 -0.779423
v 0.000000 0.550000 -0.080000
v 0.000000 0.780000 -0.030000
v 0.069282 0.550000 -0.040000
v 0.025981 0.780000 -0.015000
v 0.069282 0.550000 0.040000
v 0.025981 0.780000 0.015000
v 0.000000 0.550000 0.080000
v 0.000000 0.780000 0.030000
v -0.069282 0.550000 0.040000
v -0.025981 0.780000 0.015000
v -0.069282 0.550000 -0.040000
v -0.025981 0.780000 -0.015000
v -0.000000 0.550000 -0.080000
v -0.000000 0.780000 -0.030000
v 0.056000 0.470000 0.080000
v 1.000000 0.720000 0.030000
v 0.038263 0.536973 0.040000
v 0.993349 0.745115 0.015000
v 0.038263 0.536973 -0.040000
v 0.993349 0.745115 -0.015000
v 0.056000 0.470000 -0.080000
v 1.000000 0.720000 -0.030000
v 0.073737 0.403027 -0.040000
v 1.006651 0.694885 -0.015000
v 0.073737 0.403027 0.040000
v 1.006651 0.694885 0.015000
v 0.056000 0.470000 0.080000
v 1.000000 0.720000 0.030000
v -0.037099 0.430000 0.090331
v 0.474749 0.676050 0.795621
v -0.013611 0.496667 0.052863
v 0.483557 0.701050 0.781571
v 0.053725 0.496667 0.009667
v 0.508808 0.701050 0.765373
v 0.097573 0.430000 0.003939
v 0.525251 0.676050 0.763224
v 0.074085 0.363333 0.041407
v 0.516443 0.651050 0.777275
v 0.006750 0.363333 0.084603
v 0.491192 0.651050 0.793473
v -0.037099 0.430000 0.090331
v 0.474749 0.676050 0.795621
v -0.097573 0.390000 0.003939
v -0.525251 0.608587 0.763224
v -0.054790 0.457194 0.011327
v -0.509207 0.633784 0.765995
v 0.012546 0.457194 0.054523
v -0.483956 0.633784 0.782193
v 0.037099 0.390000 0.090331
v -0.474749 0.608587 0.795621
v -0.005685 0.322806 0.082943
v -0.490793 0.583389 0.792851
v -0.073021 0.322806 0.039747
v -0.516044 0.583389 0.776652
v -0.097573 0.390000 0.003939
v -0.525251 0.608587 0.763224
v -0.056000 0.350000 -0.080000
v -1.000000 0.616444 -0.030000
v -0.037180 0.416677 -0.040000
v -0.992943 0.641448 -0.015000
v -0.037180 0.416677 0.040000
v -0.992943 0.641448 0.015000
v -0.056000 0.350000 0.080000
v -1.000000 0.616444 0.030000
v -0.074820 0.283323 0.040000
v -1.007057 0.591440 0.015000
v -0.074820 0.283323 -0.040000
v -1.007057 0.591440 -0.015000
v -0.056000 0.350000 -0.080000
v -1.000000 0.616444 -0.030000
v 0.037099 0.310000 -0.090331
v -0.474749 0.688111 -0.795621
v 0.018341 0.373541 -0.045490
v -0.481783 0.711939 -0.778806
v -0.048994 0.373541 -0.002294
v -0.507034 0.711939 -0.762607
v -0.097573 0.310000 -0.003939
v -0.525251 0.688111 -0.763224
v -0.078816 0.246459 -0.048781
v -0.518217 0.664283 -0.780040
v -0.011480 0.246459 -0.091977
v -0.492966 0.664283 -0.796238
v 0.037099 0.310000 -0.090331
v -0.474749 0.688111 -0.795621
v 0.097573 0.270000 -0.003939
v 0.525251 0.718595 -0.763224
v 0.046761 0.331578 0.001188
v 0.506197 0.741687 -0.761302
v -0.020575 0.331578 -0.042008
v 0.480946 0.741687 -0.777500
v -0.037099 0.270000 -0.090331
v 0.474749 0.718595 -0.795621
v 0.013713 0.208422 -0.095458
v 0.493803 0.695503 -0.797544
v 0.081049 0.208422 -0.052262
v 0.519054 0.695503 -0.781345
v 0.097573 0.270000 -0.003939
v 0.525251 0.718595 -0.763224
vt 0.000000 0.0
vt 0.550000 0.0
vt 0.000000 0.0
vt 0.550000 0.0
vt 0.000000 0.0
vt 0.550000 0.0
vt 0.000000 0.0
vt 0.550000 0.0
vt 0.000000 0.0
vt 0.550000 0.0
vt 0.000000 0.0
vt 0.550000 0.0
vt 0.000000 0.0
vt 0.550000 0.0
vt 0.000000 0.0
vt 0.550000 0.0
vt 0.000000 0.0
vt 0.550000 0.0
vt 0.000000 0.0
vt 0.550000 0.0
vt 0.000000 0.0
vt 0.550000 0.0
vt 0.900000 0.0
vt 0.900000 0.0
vt 0.900000 0.0
vt 0.900000 0.0
vt 0.900000 0.0
vt 0.900000 0.0
vt 0.900000 0.0
vt 0.900000 0.0
vt 0.900000 0.0
vt 0.900000 0.0
vt 0.900000 0.0
vt 0.900000 0.0
vt 0.900000 0.0
vt 0.900000 0.0
vt 0.900000 0.0
vt 0.900000 0.0
vt 0.900000 0.0
vt 0.900000 0.0
vt 0.900000 0.0
vt 0.900000 0.0
vt 0.900000 0.0
vt 0.900000 0.0
vt 0.900000 0.0
vt 0.900000 0.0
vt 0.900000 0.0
vt 0.900000 0.0
vt 0.900000 0.0
vt 0.900000 0.0
vt 0.900000 0.0
vt 0.900000 0.0
vt 0.900000 0.0
vt 0.900000 0.0
vt 0.900000 0.0
vt 0.900000 0.0
vt 0.900000 0.0
vt 0.900000 0.0
vt 0.900000 0.0
vt 0.900000 0.0
vt 0.900000 0.0
vt 0.900000 0.0
vt 0.900000 0.0
vt 0.900000 0.0
vt 0.850000 0.0
vt 0.850000 0.0
vt 0.850000 0.0
vt 0.850000 0.0
vt 0.850000 0.0
vt 0.850000 0.0
vt 0.850000 0.0
vt 0.850000 0.0
vt 0.850000 0.0
vt 0.850000 0.0
vt 0.850000 0.0
vt 0.850000 0.0
vt 0.850000 0.0
vt 0.850000 0.0
vt 0.850000 0.0
vt 0.850000 0.0
vt 0.850000 0.0
vt 0.850000 0.0
vt 0.850000 0.0
vt 0.850000 0.0
vt 0.850000 0.0
vt 0.850000 0.0
vt 0.850000 0.0
vt 0.850000 0.0
vt 0.850000 0.0
vt 0.850000 0.0
vt 0.850000 0.0
vt 0.850000 0.0
vt 0.850000 0.0
vt 0.850000 0.0
vt 0.850000 0.0
vt 0.850000 0.0
vt 0.850000 0.0
vt 0.850000 0.0
vt 0.850000 0.0
vt 0.850000 0.0
vt 0.850000 0.0
vt 0.850000 0.0
vt 0.850000 0.0
vt 0.850000 0.0
vt 0.850000 0.0
vt 0.850000 0.0
vt 0.850000 0.0
vt 0.850000 0.0
vt 0.850000 0.0
vt 0.850000 0.0
vt 0.850000 0.0
vt 0.850000 0.0
vt 0.850000 0.0
vt 0.850000 0.0
vt 0.850000 0.0
vt 0.850000 0.0
vt 0.850000 0.0
vt 0.850000 0.0
vt 0.850000 0.0
vt 0.850000 0.0
vt 0.850000 0.0
vt 0.850000 0.0
vt 0.850000 0.0
vt 0.850000 0.0
vt 0.850000 0.0
vt 0.850000 0.0
vt 0.850000 0.0
vt 0.850000 0.0
vt 0.850000 0.0
vt 0.850000 0.0
vt 0.850000 0.0
vt 0.850000 0.0
vt 0.850000 0.0
vt 0.850000 0.0
vt 0.850000 0.0
vt 0.850000 0.0
vt 0.850000 0.0
vt 0.850000 0.0
vt 0.850000 0.0
vt 0.850000 0.0
vt 0.850000 0.0
vt 0.850000 0.0
vt 0.850000 0.0
vt 0.850000 0.0
vt 0.850000 0.0
vt 0.850000 0.0
vt 0.850000 0.0
vt 0.850000 0.0
vt 0.850000 0.0
vt 0.850000 0.0
vt 0.850000 0.0
vt 0.850000 0.0
vt 0.850000 0.0
vt 0.850000 0.0
vt 0.850000 0.0
vt 0.850000 0.0
vt 0.850000 0.0
vt 0.850000 0.0
vt 0.850000 0.0
vt 0.850000 0.0
vt 0.850000 0.0
vt 0.850000 0.0
vt 0.850000 0.0
vt 0.850000 0.0
vt 0.850000 0.0
vt 0.850000 0.0
vt 0.850000 0.0
vt 0.850000 0.0
vt 0.850000 0.0
vt 0.850000 0.0
vt 0.850000 0.0
vt 0.850000 0.0
vt 0.850000 0.0
vt 0.850000 0.0
vt 0.850000 0.0
vt 0.850000 0.0
vt 0.850000 0.0
vt 0.850000 0.0
vt 0.850000 0.0
vt 0.850000 0.0
vt 0.850000 0.0
vt 0.850000 0.0
vt 0.850000 0.0
vt 0.850000 0.0
vt 0.850000 0.0
vt 0.850000 0.0
vt 0.850000 0.0
vt 0.850000 0.0
vt 0.850000 0.0
vt 0.850000 0.0
vt 0.850000 0.0
vt 0.850000 0.0
vt 0.850000 0.0
vt 0.850000 0.0
vt 0.850000 0.0
vt 0.850000 0.0
vt 0.850000 0.0
vt 0.850000 0.0
vt 0.850000 0.0
vt 0.850000 0.0
vt 0.850000 0.0
vt 0.850000 0.0
vt 0.850000 0.0
vt 0.850000 0.0
vt 0.850000 0.0
vt 0.850000 0.0
vt 0.850000 0.0
vt 0.850000 0.0
vt 0.850000 0.0
vt 0.850000 0.0
vt 0.850000 0.0
vt 0.850000 0.0
vt 0.850000 0.0
vt 0.850000 0.0
vt 0.850000 0.0
vt 0.850000 0.0
vt 0.850000 0.0
vt 0.850000 0.0
vt 0.850000 0.0
vt 0.850000 0.0
vt 0.850000 0.0
vt 0.850000 0.0
vt 0.850000 0.0
vt 0.850000 0.0
vt 0.850000 0.0
vt 0.850000 0.0
vt 0.850000 0.0
vt 0.850000 0.0
vt 0.850000 0.0
vt 0.850000 0.0
vt 0.850000 0.0
vt 0.850000 0.0
vt 0.850000 0.0
vt 0.850000 0.0
vt 0.850000 0.0
vt 0.850000 0.0
vt 0.850000 0.0
vt 0.850000 0.0
vt 0.850000 0.0
vt 0.850000 0.0
vt 0.850000 0.0
vt 0.850000 0.0
vt 0.850000 0.0
vt 0.850000 0.0
vt 0.850000 0.0
vt 0.850000 0.0
vt 0.850000 0.0
vt 0.850000 0.0
vt 0.850000 0.0
vt 0.850000 0.0
vt 0.850000 0.0
vt 0.850000 0.0
vt 0.850000 0.0
vt 0.850000 0.0
vt 0.850000 0.0
vt 0.850000 0.0
vt 0.850000 0.0
vt 0.850000 0.0
vt 0.850000 0.0
vt 0.850000 0.0
vt 0.850000 0.0
vt 0.850000 0.0
vt 0.850000 0.0
vt 0.850000 0.0
vt 0.850000 0.0
vt 0.850000 0.0
vt 0.850000 0.0
vt 0.850000 0.0
vt 0.850000 0.0
vt 0.850000 0.0
vt 0.850000 0.0
vt 0.850000 0.0
vt 0.850000 0.0
vt 0.850000 0.0
vt 0.850000 0.0
vt 0.850000 0.0
vt 0.850000 0.0
vt 0.850000 0.0
vt 0.850000 0.0
vt 0.850000 0.0
vt 0.850000 0.0
vt 0.850000 0.0
vt 0.850000 0.0
vt 0.850000 0.0
vt 0.850000 0.0
vt 0.850000 0.0
vt 0.850000 0.0
vt 0.850000 0.0
vt 0.850000 0.0
vt 0.850000 0.0
vt 0.850000 0.0
vt 0.850000 0.0
vt 0.850000 0.0
vt 0.850000 0.0
vt 0.850000 0.0
vt 0.850000 0.0
vt 0.850000 0.0
vt 0.850000 0.0
vt 0.850000 0.0
vt 0.850000 0.0
vt 0.850000 0.0
vt 0.850000 0.0
vt 0.850000 0.0
vt 0.850000 0.0
vt 0.850000 0.0
vt 0.850000 0.0
vt 0.850000 0.0
vt 0.850000 0.0
vt 0.850000 0.0
vt 0.850000 0.0
vt 0.850000 0.0
vt 0.850000 0.0
vt 0.850000 0.0
vt 0.850000 0.0
vt 0.850000 0.0
vt 0.850000 0.0
vt 0.320000 0.0
vt 0.320000 0.0
vt 0.320000 0.0
vt 0.320000 0.0
vt 0.320000 0.0
vt 0.320000 0.0
vt 0.320000 0.0
vt 0.320000 0.0
vt 0.320000 0.0
vt 0.320000 0.0
vt 0.320000 0.0
vt 0.320000 0.0
vt 0.320000 0.0
vt 0.320000 0.0
vt 0.320000 0.0
vt 0.320000 0.0
vt 0.320000 0.0
vt 0.320000 0.0
vt 0.320000 0.0
vt 0.320000 0.0
vt 0.320000 0.0
vt 0.320000 0.0
vt 0.320000 0.0
vt 0.320000 0.0
vt 0.320000 0.0
vt 0.320000 0.0
vt 0.320000 0.0
vt 0.320000 0.0
vt 0.320000 0.0
vt 0.320000 0.0
vt 0.320000 0.0
vt 0.320000 0.0
vt 0.320000 0.0
vt 0.320000 0.0
vt 0.320000 0.0
vt 0.320000 0.0
vt 0.320000 0.0
vt 0.320000 0.0
vt 0.320000 0.0
vt 0.320000 0.0
vt 0.320000 0.0
vt 0.320000 0.0
vt 0.320000 0.0
vt 0.320000 0.0
vt 0.320000 0.0
vt 0.320000 0.0
vt 0.320000 0.0
vt 0.320000 0.0
vt 0.320000 0.0
vt 0.320000 0.0
vt 0.320000 0.0
vt 0.320000 0.0
vt 0.320000 0.0
vt 0.320000 0.0
vt 0.320000 0.0
vt 0.320000 0.0
vt 0.320000 0.0
vt 0.320000 0.0
vt 0.320000 0.0
vt 0.320000 0.0
vt 0.320000 0.0
vt 0.320000 0.0
vt 0.320000 0.0
vt 0.320000 0.0
vt 0.320000 0.0
vt 0.320000 0.0
vt 0.320000 0.0
vt 0.320000 0.0
vt 0.320000 0.0
vt 0.320000 0.0
vt 0.320000 0.0
vt 0.320000 0.0
vt 0.320000 0.0
vt 0.320000 0.0
vt 0.320000 0.0
vt 0.320000 0.0
vt 0.320000 0.0
vt 0.320000 0.0
vt 0.320000 0.0
vt 0.320000 0.0
vt 0.320000 0.0
vt 0.320000 0.0
vt 0.320000 0.0
vt 0.320000 0.0
vt 0.320000 0.0
vt 0.320000 0.0
vt 0.320000 0.0
vt 0.320000 0.0
vt 0.320000 0.0
vt 0.320000 0.0
vt 0.320000 0.0
vt 0.320000 0.0
vt 0.320000 0.0
vt 0.320000 0.0
vt 0.320000 0.0
vt 0.320000 0.0
vt 0.320000 0.0
vt 0.320000 0.0
vn 1.000000 0.000000 0.000000
vn 1.000000 0.000000 0.000000
vn 0.809017 0.000000 0.587785
vn 0.809017 0.000000 0.587785
vn 0.309017 0.000000 0.951057
vn 0.309017 0.000000 0.951057
vn -0.309017 0.000000 0.951057
vn -0.309017 0.000000 0.951057
vn -0.809017 0.000000 0.587785
vn -0.809017 0.000000 0.587785
vn -1.000000 0.000000 0.000000
vn -1.000000 0.000000 0.000000
vn -0.809017 0.000000 -0.587785
vn -0.809017 0.000000 -0.587785
vn -0.309017 0.000000 -0.951057
vn -0.309017 0.000000 -0.951057
vn 0.309017 0.000000 -0.951057
vn 0.309017 0.000000 -0.951057
vn 0.809017 0.000000 -0.587785
vn 0.809017 0.000000 -0.587785
vn 1.000000 0.000000 -0.000000
vn 1.000000 0.000000 -0.000000
vn -0.082126 0.996622 0.000000
vn 0.082126 0.996622 0.000000
vn -0.082126 -0.996622 0.000000
vn 0.082126 -0.996622 0.000000
vn 0.000000 -0.974310 0.225210
vn 0.000000 0.974310 0.225210
vn 0.000000 -0.974310 -0.225210
vn 0.000000 0.974310 -0.225210
vn 0.833773 0.000000 -0.552107
vn 0.833773 0.000000 0.552107
vn -0.833773 0.000000 -0.552107
vn -0.833773 0.000000 0.552107
vn -0.210105 0.973890 0.085985
vn -0.198065 0.918080 0.343366
vn -0.050666 0.994846 0.087835
vn 0.050666 0.994846 0.087835
vn 0.000000 1.000000 0.000000
vn 0.050666 0.994846 -0.087835
vn -0.050666 0.994846 -0.087835
vn -0.198065 0.918080 -0.343366
vn -0.210105 0.973890 -0.085985
vn -1.000000 0.000000 0.000000
vn 0.198065 0.918080 0.343366
vn 0.210105 0.973890 0.085985
vn -0.198065 -0.918080 0.343366
vn 0.000000 0.000000 1.000000
vn -0.210105 -0.973890 -0.085985
vn -0.210105 -0.973890 0.085985
vn 0.000000 0.000000 -1.000000
vn -0.198065 -0.918080 -0.343366
vn 0.210105 0.973890 -0.085985
vn 0.198065 0.918080 -0.343366
vn 0.210105 -0.973890 0.085985
vn 0.198065 -0.918080 0.343366
vn 0.050666 -0.994846 0.087835
vn -0.050666 -0.994846 0.087835
vn 0.000000 -1.000000 0.000000
vn -0.050666 -0.994846 -0.087835
vn 0.050666 -0.994846 -0.087835
vn 0.198065 -0.918080 -0.343366
vn 0.210105 -0.973890 -0.085985
vn 1.000000 0.000000 0.000000
vn -0.115556 0.993301 0.000000
vn 0.115556 0.993301 0.000000
vn -0.115556 -0.993301 0.000000
vn 0.115556 -0.993301 0.000000
vn 0.000000 -0.951423 0.307887
vn 0.000000 0.951423 0.307887
vn 0.000000 -0.951423 -0.307887
vn 0.000000 0.951423 -0.307887
vn 0.835890 0.000000 -0.548897
vn 0.835890 0.000000 0.548897
vn -0.835890 0.000000 -0.548897
vn -0.835890 0.000000 0.548897
vn -0.289341 0.949996 0.117426
vn -0.260505 0.855317 0.447850
vn -0.071175 0.989930 0.122362
vn 0.071175 0.989930 0.122362
vn 0.000000 1.000000 0.000000
vn 0.071175 0.989930 -0.122362
vn -0.071175 0.989930 -0.122362
vn -0.260505 0.855317 -0.447850
vn -0.289341 0.949996 -0.117426
vn -1.000000 0.000000 0.000000
vn 0.260505 0.855317 0.447850
vn 0.289341 0.949996 0.117426
vn -0.260505 -0.855317 0.447850
vn 0.000000 0.000000 1.000000
vn -0.289341 -0.949996 -0.117426
vn -0.289341 -0.949996 0.117426
vn 0.000000 0.000000 -1.000000
vn -0.260505 -0.855317 -0.447850
vn 0.289341 0.949996 -0.117426
vn 0.260505 0.855317 -0.447850
vn 0.289341 -0.949996 0.117426
vn 0.260505 -0.855317 0.447850
vn 0.071175 -0.989930 0.122362
vn -0.071175 -0.989930 0.122362
vn 0.000000 -1.000000 0.000000
vn -0.071175 -0.989930 -0.122362
vn 0.071175 -0.989930 -0.122362
vn 0.260505 -0.855317 -0.447850
vn 0.289341 -0.949996 -0.117426
vn 1.000000 0.000000 0.000000
vn -0.115556 0.993301 0.000000
vn 0.115556 0.993301 0.000000
vn -0.115556 -0.993301 0.000000
vn 0.115556 -0.993301 0.000000
vn 0.000000 -0.951423 0.307887
vn 0.000000 0.951423 0.307887
vn 0.000000 -0.951423 -0.307887
vn 0.000000 0.951423 -0.307887
vn 0.835890 0.000000 -0.548897
vn 0.835890 0.000000 0.548897
vn -0.835890 0.000000 -0.548897
vn -0.835890 0.000000 0.548897
vn -0.289341 0.949996 0.117426
vn -0.260505 0.855317 0.447850
vn -0.071175 0.989930 0.122362
vn 0.071175 0.989930 0.122362
vn 0.000000 1.000000 0.000000
vn 0.071175 0.989930 -0.122362
vn -0.071175 0.989930 -0.122362
vn -0.260505 0.855317 -0.447850
vn -0.289341 0.949996 -0.117426
vn -1.000000 0.000000 0.000000
vn 0.260505 0.855317 0.447850
vn 0.289341 0.949996 0.117426
vn -0.260505 -0.855317 0.447850
vn 0.000000 0.000000 1.000000
vn -0.289341 -0.949996 -0.117426
vn -0.289341 -0.949996 0.117426
vn 0.000000 0.000000 -1.000000
vn -0.260505 -0.855317 -0.447850
vn 0.289341 0.949996 -0.117426
vn 0.260505 0.855317 -0.447850
vn 0.289341 -0.949996 0.117426
vn 0.260505 -0.855317 0.447850
vn 0.071175 -0.989930 0.122362
vn -0.071175 -0.989930 0.122362
vn 0.000000 -1.000000 0.000000
vn -0.071175 -0.989930 -0.122362
vn 0.071175 -0.989930 -0.122362
vn 0.260505 -0.855317 -0.447850
vn 0.289341 -0.949996 -0.117426
vn 1.000000 0.000000 0.000000
vn -0.115556 0.993301 0.000000
vn 0.115556 0.993301 0.000000
vn -0.115556 -0.993301 0.000000
vn 0.115556 -0.993301 0.000000
vn 0.000000 -0.951423 0.307887
vn 0.000000 0.951423 0.307887
vn 0.000000 -0.951423 -0.307887
vn 0.000000 0.951423 -0.307887
vn 0.835890 0.000000 -0.548897
vn 0.835890 0.000000 0.548897
vn -0.835890 0.000000 -0.548897
vn -0.835890 0.000000 0.548897
vn -0.289341 0.949996 0.117426
vn -0.260505 0.855317 0.447850
vn -0.071175 0.989930 0.122362
vn 0.071175 0.989930 0.122362
vn 0.000000 1.000000 0.000000
vn 0.071175 0.989930 -0.122362
vn -0.071175 0.989930 -0.122362
vn -0.260505 0.855317 -0.447850
vn -0.289341 0.949996 -0.117426
vn -1.000000 0.000000 0.000000
vn 0.260505 0.855317 0.447850
vn 0.289341 0.949996 0.117426
vn -0.260505 -0.855317 0.447850
vn 0.000000 0.000000 1.000000
vn -0.289341 -0.949996 -0.117426
vn -0.289341 -0.949996 0.117426
vn 0.000000 0.000000 -1.000000
vn -0.260505 -0.855317 -0.447850
vn 0.289341 0.949996 -0.117426
vn 0.260505 0.855317 -0.447850
vn 0.289341 -0.949996 0.117426
vn 0.260505 -0.855317 0.447850
vn 0.071175 -0.989930 0.122362
vn -0.071175 -0.989930 0.122362
vn 0.000000 -1.000000 0.000000
vn -0.071175 -0.989930 -0.122362
vn 0.071175 -0.989930 -0.122362
vn 0.260505 -0.855317 -0.447850
vn 0.289341 -0.949996 -0.117426
vn 1.000000 0.000000 0.000000
vn -0.115556 0.993301 0.000000
vn 0.115556 0.993301 0.000000
vn -0.115556 -0.993301 0.000000
vn 0.115556 -0.993301 0.000000
vn 0.000000 -0.951423 0.307887
vn 0.000000 0.951423 0.307887
vn 0.000000 -0.951423 -0.307887
vn 0.000000 0.951423 -0.307887
vn 0.835890 0.000000 -0.548897
vn 0.835890 0.000000 0.548897
vn -0.835890 0.000000 -0.548897
vn -0.835890 0.000000 0.548897
vn -0.289341 0.949996 0.117426
vn -0.260505 0.855317 0.447850
vn -0.071175 0.989930 0.122362
vn 0.071175 0.989930 0.122362
vn 0.000000 1.000000 0.000000
vn 0.071175 0.989930 -0.122362
vn -0.071175 0.989930 -0.122362
vn -0.260505 0.855317 -0.447850
vn -0.289341 0.949996 -0.117426
vn -1.000000 0.000000 0.000000
vn 0.260505 0.855317 0.447850
vn 0.289341 0.949996 0.117426
vn -0.260505 -0.855317 0.447850
vn 0.000000 0.000000 1.000000
vn -0.289341 -0.949996 -0.117426
vn -0.289341 -0.949996 0.117426
vn 0.000000 0.000000 -1.000000
vn -0.260505 -0.855317 -0.447850
vn 0.289341 0.949996 -0.117426
vn 0.260505 0.855317 -0.447850
vn 0.289341 -0.949996 0.117426
vn 0.260505 -0.855317 0.447850
vn 0.071175 -0.989930 0.122362
vn -0.071175 -0.989930 0.122362
vn 0.000000 -1.000000 0.000000
vn -0.071175 -0.989930 -0.122362
vn 0.071175 -0.989930 -0.122362
vn 0.260505 -0.855317 -0.447850
vn 0.289341 -0.949996 -0.117426
vn 1.000000 0.000000 0.000000
vn -0.115556 0.993301 0.000000
vn 0.115556 0.993301 0.000000
vn -0.115556 -0.993301 0.000000
vn 0.115556 -0.993301 0.000000
vn 0.000000 -0.951423 0.307887
vn 0.000000 0.951423 0.307887
vn 0.000000 -0.951423 -0.307887
vn 0.000000 0.951423 -0.307887
vn 0.835890 0.000000 -0.548897
vn 0.835890 0.000000 0.548897
vn -0.835890 0.000000 -0.548897
vn -0.835890 0.000000 0.548897
vn -0.289341 0.949996 0.117426
vn -0.260505 0.855317 0.447850
vn -0.071175 0.989930 0.122362
vn 0.071175 0.989930 0.122362
vn 0.000000 1.000000 0.000000
vn 0.071175 0.989930 -0.122362
vn -0.071175 0.989930 -0.122362
vn -0.260505 0.855317 -0.447850
vn -0.289341 0.949996 -0.117426
vn -1.000000 0.000000 0.000000
vn 0.260505 0.855317 0.447850
vn 0.289341 0.949996 0.117426
vn -0.260505 -0.855317 0.447850
vn 0.000000 0.000000 1.000000
vn -0.289341 -0.949996 -0.117426
vn -0.289341 -0.949996 0.117426
vn 0.000000 0.000000 -1.000000
vn -0.260505 -0.855317 -0.447850
vn 0.289341 0.949996 -0.117426
vn 0.260505 0.855317 -0.447850
vn 0.289341 -0.949996 0.117426
vn 0.260505 -0.855317 0.447850
vn 0.071175 -0.989930 0.122362
vn -0.071175 -0.989930 0.122362
vn 0.000000 -1.000000 0.000000
vn -0.071175 -0.989930 -0.122362
vn 0.071175 -0.989930 -0.122362
vn 0.260505 -0.855317 -0.447850
vn 0.289341 -0.949996 -0.117426
vn 1.000000 0.000000 0.000000
vn -0.115556 0.993301 0.000000
vn 0.115556 0.993301 0.000000
vn -0.115556 -0.993301 0.000000
vn 0.115556 -0.993301 0.000000
vn 0.000000 -0.951423 0.307887
vn 0.000000 0.951423 0.307887
vn 0.000000 -0.951423 -0.307887
vn 0.000000 0.951423 -0.307887
vn 0.835890 0.000000 -0.548897
vn 0.835890 0.000000 0.548897
vn -0.835890 0.000000 -0.548897
vn -0.835890 0.000000 0.548897
vn -0.289341 0.949996 0.117426
vn -0.260505 0.855317 0.447850
vn -0.071175 0.989930 0.122362
vn 0.071175 0.989930 0.122362
vn 0.000000 1.000000 0.000000
vn 0.071175 0.989930 -0.122362
vn -0.071175 0.989930 -0.122362
vn -0.260505 0.855317 -0.447850
vn -0.289341 0.949996 -0.117426
vn -1.000000 0.000000 0.000000
vn 0.260505 0.855317 0.447850
vn 0.289341 0.949996 0.117426
vn -0.260505 -0.855317 0.447850
vn 0.000000 0.000000 1.000000
vn -0.289341 -0.949996 -0.117426
vn -0.289341 -0.949996 0.117426
vn 0.000000 0.000000 -1.000000
vn -0.260505 -0.855317 -0.447850
vn 0.289341 0.949996 -0.117426
vn 0.260505 0.855317 -0.447850
vn 0.289341 -0.949996 0.117426
vn 0.260505 -0.855317 0.447850
vn 0.071175 -0.989930 0.122362
vn -0.071175 -0.989930 0.122362
vn 0.000000 -1.000000 0.000000
vn -0.071175 -0.989930 -0.122362
vn 0.071175 -0.989930 -0.122362
vn 0.260505 -0.855317 -0.447850
vn 0.289341 -0.949996 -0.117426
vn 1.000000 0.000000 0.000000
vn 0.000000 0.000000 -1.000000
vn 0.000000 0.000000 -1.000000
vn 0.866025 0.000000 -0.500000
vn 0.866025 0.000000 -0.500000
vn 0.866025 -0.000000 0.500000
vn 0.866025 -0.000000 0.500000
vn 0.000000 -0.000000 1.000000
vn 0.000000 -0.000000 1.000000
vn -0.866025 0.000000 0.500000
vn -0.866025 0.000000 0.500000
vn -0.866025 0.000000 -0.500000
vn -0.866025 0.000000 -0.500000
vn -0.000000 0.000000 -1.000000
vn -0.000000 0.000000 -1.000000
vn 0.000000 0.000000 1.000000
vn 0.000000 0.000000 1.000000
vn -0.221707 0.837165 0.500000
vn -0.221707 0.837165 0.500000
vn -0.221707 0.837165 -0.500000
vn -0.221707 0.837165 -0.500000
vn -0.000000 0.000000 -1.000000
vn -0.000000 0.000000 -1.000000
vn 0.221707 -0.837165 -0.500000
vn 0.221707 -0.837165 -0.500000
vn 0.221707 -0.837165 0.500000
vn 0.221707 -0.837165 0.500000
vn 0.000000 -0.000000 1.000000
vn 0.000000 -0.000000 1.000000
vn -0.841698 0.000000 0.539949
vn -0.841698 0.000000 0.539949
vn -0.548103 0.833340 0.071605
vn -0.548103 0.833340 0.071605
vn 0.293594 0.833340 -0.468345
vn 0.293594 0.833340 -0.468345
vn 0.841698 0.000000 -0.539949
vn 0.841698 0.000000 -0.539949
vn 0.548103 -0.833340 -0.071605
vn 0.548103 -0.833340 -0.071605
vn -0.293594 -0.833340 0.468345
vn -0.293594 -0.833340 0.468345
vn -0.841698 -0.000000 0.539949
vn -0.841698 -0.000000 0.539949
vn -0.841698 0.000000 -0.539949
vn -0.841698 0.000000 -0.539949
vn -0.306905 0.839921 -0.447595
vn -0.306905 0.839921 -0.447595
vn 0.534792 0.839921 0.092354
vn 0.534792 0.839921 0.092354
vn 0.841698 0.000000 0.539949
vn 0.841698 0.000000 0.539949
vn 0.306905 -0.839921 0.447595
vn 0.306905 -0.839921 0.447595
vn -0.534792 -0.839921 -0.092354
vn -0.534792 -0.839921 -0.092354
vn -0.841698 -0.000000 -0.539949
vn -0.841698 -0.000000 -0.539949
vn -0.000000 0.000000 -1.000000
vn -0.000000 0.000000 -1.000000
vn 0.235245 0.833463 -0.500000
vn 0.235245 0.833463 -0.500000
vn 0.235245 0.833463 0.500000
vn 0.235245 0.833463 0.500000
vn 0.000000 0.000000 1.000000
vn 0.000000 0.000000 1.000000
vn -0.235245 -0.833463 0.500000
vn -0.235245 -0.833463 0.500000
vn -0.235245 -0.833463 -0.500000
vn -0.235245 -0.833463 -0.500000
vn -0.000000 -0.000000 -1.000000
vn -0.000000 -0.000000 -1.000000
vn 0.841698 0.000000 -0.539949
vn 0.841698 0.000000 -0.539949
vn 0.607233 0.794258 0.020569
vn 0.607233 0.794258 0.020569
vn -0.234465 0.794258 0.560518
vn -0.234465 0.794258 0.560518
vn -0.841698 0.000000 0.539949
vn -0.841698 0.000000 0.539949
vn -0.607233 -0.794258 -0.020569
vn -0.607233 -0.794258 -0.020569
vn 0.234465 -0.794258 -0.560518
vn 0.234465 -0.794258 -0.560518
vn 0.841698 -0.000000 -0.539949
vn 0.841698 -0.000000 -0.539949
vn 0.841698 0.000000 0.539949
vn 0.841698 0.000000 0.539949
vn 0.206550 0.769728 0.604033
vn 0.206550 0.769728 0.604033
vn -0.635147 0.769728 0.064084
vn -0.635147 0.769728 0.064084
vn -0.841698 0.000000 -0.539949
vn -0.841698 0.000000 -0.539949
vn -0.206550 -0.769728 -0.604033
vn -0.206550 -0.769728 -0.604033
vn 0.635147 -0.769728 -0.064084
vn 0.635147 -0.769728 -0.064084
vn 0.841698 -0.000000 0.539949
vn 0.841698 -0.000000 0.539949
f 1/1/1 2/2/2 3/3/3
f 2/2/2 4/4/4 3/3/3
f 3/3/3 4/4/4 5/5/5
f 4/4/4 6/6/6 5/5/5
f 5/5/5 6/6/6 7/7/7
f 6/6/6 8/8/8 7/7/7
f 7/7/7 8/8/8 9/9/9
f 8/8/8 10/10/10 9/9/9
f 9/9/9 10/10/10 11/11/11
f 10/10/10 12/12/12 11/11/11
f 11/11/11 12/12/12 13/13/13
f 12/12/12 14/14/14 13/13/13
f 13/13/13 14/14/14 15/15/15
f 14/14/14 16/16/16 15/15/15
f 15/15/15 16/16/16 17/17/17
f 16/16/16 18/18/18 17/17/17
f 17/17/17 18/18/18 19/19/19
f 18/18/18 20/20/20 19/19/19
f 19/19/19 20/20/20 21/21/21
f 20/20/20 22/22/22 21/21/21
f 23/23/23 35/35/35 37/37/37
f 34/34/34 36/36/36 35/35/35
f 28/28/28 37/37/37 36/36/36
f 35/35/35 36/36/36 37/37/37
f 23/23/23 37/37/37 39/39/39
f 28/28/28 38/38/38 37/37/37
f 24/24/24 39/39/39 38/38/38
f 37/37/37 38/38/38 39/39/39
f 23/23/23 39/39/39 41/41/41
f 24/24/24 40/40/40 39/39/39
f 30/30/30 41/41/41 40/40/40
f 39/39/39 40/40/40 41/41/41
f 23/23/23 41/41/41 43/43/43
f 30/30/30 42/42/42 41/41/41
f 33/33/33 43/43/43 42/42/42
f 41/41/41 42/42/42 43/43/43
f 23/23/23 43/43/43 35/35/35
f 33/33/33 44/44/44 43/43/43
f 34/34/34 35/35/35 44/44/44
f 43/43/43 44/44/44 35/35/35
f 24/24/24 38/38/38 46/46/46
f 28/28/28 45/45/45 38/38/38
f 32/32/32 46/46/46 45/45/45
f 38/38/38 45/45/45 46/46/46
f 28/28/28 36/36/36 48/48/48
f 34/34/34 47/47/47 36/36/36
f 27/27/27 48/48/48 47/47/47
f 36/36/36 47/47/47 48/48/48
f 34/34/34 44/44/44 50/50/50
f 33/33/33 49/49/49 44/44/44
f 25/25/25 50/50/50 49/49/49
f 44/44/44 49/49/49 50/50/50
f 33/33/33 42/42/42 52/52/52
f 30/30/30 51/51/51 42/42/42
f 29/29/29 52/52/52 51/51/51
f 42/42/42 51/51/51 52/52/52
f 30/30/30 40/40/40 54/54/54
f 24/24/24 53/53/53 40/40/40
f 31/31/31 54/54/54 53/53/53
f 40/40/40 53/53/53 54/54/54
f 26/26/26 55/55/55 57/57/57
f 32/32/32 56/56/56 55/55/55
f 27/27/27 57/57/57 56/56/56
f 55/55/55 56/56/56 57/57/57
f 26/26/26 57/57/57 59/59/59
f 27/27/27 58/58/58 57/57/57
f 25/25/25 59/59/59 58/58/58
f 57/57/57 58/58/58 59/59/59
f 26/26/26 59/59/59 61/61/61
f 25/25/25 60/60/60 59/59/59
f 29/29/29 61/61/61 60/60/60
f 59/59/59 60/60/60 61/61/61
f 26/26/26 61/61/61 63/63/63
f 29/29/29 62/62/62 61/61/61
f 31/31/31 63/63/63 62/62/62
f 61/61/61 62/62/62 63/63/63
f 26/26/26 63/63/63 55/55/55
f 31/31/31 64/64/64 63/63/63
f 32/32/32 55/55/55 64/64/64
f 63/63/63 64/64/64 55/55/55
f 27/27/27 56/56/56 48/48/48
f 32/32/32 45/45/45 56/56/56
f 28/28/28 48/48/48 45/45/45
f 56/56/56 45/45/45 48/48/48
f 25/25/25 58/58/58 50/50/50
f 27/27/27 47/47/47 58/58/58
f 34/34/34 50/50/50 47/47/47
f 58/58/58 47/47/47 50/50/50
f 29/29/29 60/60/60 52/52/52
f 25/25/25 49/49/49 60/60/60
f 33/33/33 52/52/52 49/49/49
f 60/60/60 49/49/49 52/52/52
f 31/31/31 62/62/62 54/54/54
f 29/29/29 51/51/51 62/62/62
f 30/30/30 54/54/54 51/51/51
f 62/62/62 51/51/51 54/54/54
f 32/32/32 64/64/64 46/46/46
f 31/31/31 53/53/53 64/64/64
f 24/24/24 46/46/46 53/53/53
f 64/64/64 53/53/53 46/46/46
f 65/65/65 77/77/77 79/79/79
f 76/76/76 78/78/78 77/77/77
f 70/70/70 79/79/79 78/78/78
f 77/77/77 78/78/78 79/79/79
f 65/65/65 79/79/79 81/81/81
f 70/70/70 80/80/80 79/79/79
f 66/66/66 81/81/81 80/80/80
f 79/79/79 80/80/80 81/81/81
f 65/65/65 81/81/81 83/83/83
f 66/66/66 82/82/82 81/81/81
f 72/72/72 83/83/83 82/82/82
f 81/81/81 82/82/82 83/83/83
f 65/65/65 83/83/83 85/85/85
f 72/72/72 84/84/84 83/83/83
f 75/75/75 85/85/85 84/84/84
f 83/83/83 84/84/84 85/85/85
f 65/65/65 85/85/85 77/77/77
f 75/75/75 86/86/86 85/85/85
f 76/76/76 77/77/77 86/86/86
f 85/85/85 86/86/86 77/77/77
f 66/66/66 80/80/80 88/88/88
f 70/70/70 87/87/87 80/80/80
f 74/74/74 88/88/88 87/87/87
f 80/80/80 87/87/87 88/88/88
f 70/70/70 78/78/78 90/90/90
f 76/76/76 89/89/89 78/78/78
f 69/69/69 90/90/90 89/89/89
f 78/78/78 89/89/89 90/90/90
f 76/76/76 86/86/86 92/92/92
f 75/75/75 91/91/91 86/86/86
f 67/67/67 92/92/92 91/91/91
f 86/86/86 91/91/91 92/92/92
f 75/75/75 84/84/84 94/94/94
f 72/72/72 93/93/93 84/84/84
f 71/71/71 94/94/94 93/93/93
f 84/84/84 93/93/93 94/94/94
f 72/72/72 82/82/82 96/96/96
f 66/66/66 95/95/95 82/82/82
f 73/73/73 96/96/96 95/95/95
f 82/82/82 95/95/95 96/96/96
f 68/68/68 97/97/97 99/99/99
f 74/74/74 98/98/98 97/97/97
f 69/69/69 99/99/99 98/98/98
f 97/97/97 98/98/98 99/99/99
f 68/68/68 99/99/99 101/101/101
f 69/69/69 100/100/100 99/99/99
f 67/67/67 101/101/101 100/100/100
f 99/99/99 100/100/100 101/101/101
f 68/68/68 101/101/101 103/103/103
f 67/67/67 102/102/102 101/101/101
f 71/71/71 103/103/103 102/102/102
f 101/101/101 102/102/102 103/103/103
f 68/68/68 103/103/103 105/105/105
f 71/71/71 104/104/104 103/103/103
f 73/73/73 105/105/105 104/104/104
f 103/103/103 104/104/104 105/105/105
f 68/68/68 105/105/105 97/97/97
f 73/73/73 106/106/106 105/105/105
f 74/74/74 97/97/97 106/106/106
f 105/105/105 106/106/106 97/97/97
f 69/69/69 98/98/98 90/90/90
f 74/74/74 87/87/87 98/98/98
f 70/70/70 90/90/90 87/87/87
f 98/98/98 87/87/87 90/90/90
f 67/67/67 100/100/100 92/92/92
f 69/69/69 89/89/89 100/100/100
f 76/76/76 92/92/92 89/89/89
f 100/100/100 89/89/89 92/92/92
f 71/71/71 102/102/102 94/94/94
f 67/67/67 91/91/91 102/102/102
f 75/75/75 94/94/94 91/91/91
f 102/102/102 91/91/91 94/94/94
f 73/73/73 104/104/104 96/96/96
f 71/71/71 93/93/93 104/104/104
f 72/72/72 96/96/96 93/93/93
f 104/104/104 93/93/93 96/96/96
f 74/74/74 106/106/106 88/88/88
f 73/73/73 95/95/95 106/106/106
f 66/66/66 88/88/88 95/95/95
f 106/106/106 95/95/95 88/88/88
f 107/107/107 119/119/119 121/121/121
f 118/118/118 120/120/120 119/119/119
f 112/112/112 121/121/121 120/120/120
f 119/119/119 120/120/120 121/121/121
f 107/107/107 121/121/121 123/123/123
f 112/112/112 122/122/122 121/121/121
f 108/108/108 123/123/123 122/122/122
f 121/121/121 122/122/122 123/123/123
f 107/107/107 123/123/123 125/125/125
f 108/108/108 124/124/124 123/123/123
f 114/114/114 125/125/125 124/124/124
f 123/123/123 124/124/124 125/125/125
f 107/107/107 125/125/125 127/127/127
f 114/114/114 126/126/126 125/125/125
f 117/117/117 127/127/127 126/126/126
f 125/125/125 126/126/126 127/127/127
f 107/107/107 127/127/127 119/119/119
f 117/117/117 128/128/128 127/127/127
f 118/118/118 119/119/119 128/128/128
f 127/127/127 128/128/128 119/119/119
f 108/108/108 122/122/122 130/130/130
f 112/112/112 129/129/129 122/122/122
f 116/116/116 130/130/130 129/129/129
f 122/122/122 129/129/129 130/130/130
f 112/112/112 120/120/120 132/132/132
f 118/118/118 131/131/131 120/120/120
f 111/111/111 132/132/132 131/131/131
f 120/120/120 131/131/131 132/132/132
f 118/118/118 128/128/128 134/134/134
f 117/117/117 133/133/133 128/128/128
f 109/109/109 134/134/134 133/133/133
f 128/128/128 133/133/133 134/134/134
f 117/117/117 126/126/126 136/136/136
f 114/114/114 135/135/135 126/126/126
f 113/113/113 136/136/136 135/135/135
f 126/126/126 135/135/135 136/136/136
f 114/114/114 124/124/124 138/138/138
f 108/108/108 137/137/137 124/124/124
f 115/115/115 138/138/138 137/137/137
f 124/124/124 137/137/137 138/138/138
f 110/110/110 139/139/139 141/141/141
f 116/116/116 140/140/140 139/139/139
f 111/111/111 141/141/141 140/140/140
f 139/139/139 140/140/140 141/141/141
f 110/110/110 141/141/141 143/143/143
f 111/111/111 142/142/142 141/141/141
f 109/109/109 143/143/143 142/142/142
f 141/141/141 142/142/142 143/143/143
f 110/110/110 143/143/143 145/145/145
f 109/109/109 144/144/144 143/143/143
f 113/113/113 145/145/145 144/144/144
f 143/143/143 144/144/144 145/145/145
f 110/110/110 145/145/145 147/147/147
f 113/113/113 146/146/146 145/145/145
f 115/115/115 147/147/147 146/146/146
f 145/145/145 146/146/146 147/147/147
f 110/110/110 147/147/147 139/139/139
f 115/115/115 148/148/148 147/147/147
f 116/116/116 139/139/139 148/148/148
f 147/147/147 148/148/148 139/139/139
f 111/111/111 140/140/140 132/132/132
f 116/116/116 129/129/129 140/140/140
f 112/112/112 132/132/132 129/129/129
f 140/140/140 129/129/129 132/132/132
f 109/109/109 142/142/142 134/134/134
f 111/111/111 131/131/131 142/142/142
f 118/118/118 134/134/134 131/131/131
f 142/142/142 131/131/131 134/134/134
f 113/113/113 144/144/144 136/136/136
f 109/109/109 133/133/133 144/144/144
f 117/117/117 136/136/136 133/133/133
f 144/144/144 133/133/133 136/136/136
f 115/115/115 146/146/146 138/138/138
f 113/113/113 135/135/135 146/146/146
f 114/114/114 138/138/138 135/135/135
f 146/146/146 135/135/135 138/138/138
f 116/116/116 148/148/148 130/130/130
f 115/115/115 137/137/137 148/148/148
f 108/108/108 130/130/130 137/137/137
f 148/148/148 137/137/137 130/130/130
f 149/149/149 161/161/161 163/163/163
f 160/160/160 162/162/162 161/161/161
f 154/154/154 163/163/163 162/162/162
f 161/161/161 162/162/162 163/163/163
f 149/149/149 163/163/163 165/165/165
f 154/154/154 164/164/164 163/163/163
f 150/150/150 165/165/165 164/164/164
f 163/163/163 164/164/164 165/165/165
f 149/149/149 165/165/165 167/167/167
f 150/150/150 166/166/166 165/165/165
f 156/156/156 167/167/167 166/166/166
f 165/165/165 166/166/166 167/167/167
f 149/149/149 167/167/167 169/169/169
f 156/156/156 168/168/168 167/167/167
f 159/159/159 169/169/169 168/168/168
f 167/167/167 168/168/168 169/169/169
f 149/149/149 169/169/169 161/161/161
f 159/159/159 170/170/170 169/169/169
f 160/160/160 161/161/161 170/170/170
f 169/169/169 170/170/170 161/161/161
f 150/150/150 164/164/164 172/172/172
f 154/154/154 171/171/171 164/164/164
f 158/158/158 172/172/172 171/171/171
f 164/164/164 171/171/171 172/172/172
f 154/154/154 162/162/162 174/174/174
f 160/160/160 173/173/173 162/162/162
f 153/153/153 174/174/174 173/173/173
f 162/162/162 173/173/173 174/174/174
f 160/160/160 170/170/170 176/176/176
f 159/159/159 175/175/175 170/170/170
f 151/151/151 176/176/176 175/175/175
f 170/170/170 175/175/175 176/176/176
f 159/159/159 168/168/168 178/178/178
f 156/156/156 177/177/177 168/168/168
f 155/155/155 178/178/178 177/177/177
f 168/168/168 177/177/177 178/178/178
f 156/156/156 166/166/166 180/180/180
f 150/150/150 179/179/179 166/166/166
f 157/157/157 180/180/180 179/179/179
f 166/166/166 179/179/179 180/180/180
f 152/152/152 181/181/181 183/183/183
f 158/158/158 182/182/182 181/181/181
f 153/153/153 183/183/183 182/182/182
f 181/181/181 182/182/182 183/183/183
f 152/152/152 183/183/183 185/185/185
f 153/153/153 184/184/184 183/183/183
f 151/151/151 185/185/185 184/184/184
f 183/183/183 184/184/184 185/185/185
f 152/152/152 185/185/185 187/187/187
f 151/151/151 186/186/186 185/185/185
f 155/155/155 187/187/187 186/186/186
f 185/185/185 186/186/186 187/187/187
f 152/152/152 187/187/187 189/189/189
f 155/155/155 188/188/188 187/187/187
f 157/157/157 189/189/189 188/188/188
f 187/187/187 188/188/188 189/189/189
f 152/152/152 189/189/189 181/181/181
f 157/157/157 190/190/190 189/189/189
f 158/158/158 181/181/181 190/190/190
f 189/189/189 190/190/190 181/181/181
f 153/153/153 182/182/182 174/174/174
f 158/158/158 171/171/171 182/182/182
f 154/154/154 174/174/174 171/171/171
f 182/182/182 171/171/171 174/174/174
f 151/151/151 184/184/184 176/176/176
f 153/153/153 173/173/173 184/184/184
f 160/160/160 176/176/176 173/173/173
f 184/184/184 173/173/173 176/176/176
f 155/155/155 186/186/186 178/178/178
f 151/151/151 175/175/175 186/186/186
f 159/159/159 178/178/178 175/175/175
f 186/186/186 175/175/175 178/178/178
f 157/157/157 188/188/188 180/180/180
f 155/155/155 177/177/177 188/188/188
f 156/156/156 180/180/180 177/177/177
f 188/188/188 177/177/177 180/180/180
f 158/158/158 190/190/190 172/172/172
f 157/157/157 179/179/179 190/190/190
f 150/150/150 172/172/172 179/179/179
f 190/190/190 179/179/179 172/172/172
f 191/191/191 203/203/203 205/205/205
f 202/202/202 204/204/204 203/203/203
f 196/196/196 205/205/205 204/204/204
f 203/203/203 204/204/204 205/205/205
f 191/191/191 205/205/205 207/207/207
f 196/196/196 206/206/206 205/205/205
f 192/192/192 207/207/207 206/206/206
f 205/205/205 206/206/206 207/207/207
f 191/191/191 207/207/207 209/209/209
f 192/192/192 208/208/208 207/207/207
f 198/198/198 209/209/209 208/208/208
f 207/207/207 208/208/208 209/209/209
f 191/191/191 209/209/209 211/211/211
f 198/198/198 210/210/210 209/209/209
f 201/201/201 211/211/211 210/210/210
f 209/209/209 210/210/210 211/211/211
f 191/191/191 211/211/211 203/203/203
f 201/201/201 212/212/212 211/211/211
f 202/202/202 203/203/203 212/212/212
f 211/211/211 212/212/212 203/203/203
f 192/192/192 206/206/206 214/214/214
f 196/196/196 213/213/213 206/206/206
f 200/200/200 214/214/214 213/213/213
f 206/206/206 213/213/213 214/214/214
f 196/196/196 204/204/204 216/216/216
f 202/202/202 215/215/215 204/204/204
f 195/195/195 216/216/216 215/215/215
f 204/204/204 215/215/215 216/216/216
f 202/202/202 212/212/212 218/218/218
f 201/201/201 217/217/217 212/212/212
f 193/193/193 218/218/218 217/217/217
f 212/212/212 217/217/217 218/218/218
f 201/201/201 210/210/210 220/220/220
f 198/198/198 219/219/219 210/210/210
f 197/197/197 220/220/220 219/219/219
f 210/210/210 219/219/219 220/220/220
f 198/198/198 208/208/208 222/222/222
f 192/192/192 221/221/221 208/208/208
f 199/199/199 222/222/222 221/221/221
f 208/208/208 221/221/221 222/222/222
f 194/194/194 223/223/223 225/225/225
f 200/200/200 224/224/224 223/223/223
f 195/195/195 225/225/225 224/224/224
f 223/223/223 224/224/224 225/225/225
f 194/194/194 225/225/225 227/227/227
f 195/195/195 226/226/226 225/225/225
f 193/193/193 227/227/227 226/226/226
f 225/225/225 226/226/226 227/227/227
f 194/194/194 227/227/227 229/229/229
f 193/193/193 228/228/228 227/227/227
f 197/197/197 229/229/229 228/228/228
f 227/227/227 228/228/228 229/229/229
f 194/194/194 229/229/229 231/231/231
f 197/197/197 230/230/230 229/229/229
f 199/199/199 231/231/231 230/230/230
f 229/229/229 230/230/230 231/231/231
f 194/194/194 231/231/231 223/223/223
f 199/199/199 232/232/232 231/231/231
f 200/200/200 223/223/223 232/232/232
f 231/231/231 232/232/232 223/223/223
f 195/195/195 224/224/224 216/216/216
f 200/200/200 213/213/213 224/224/224
f 196/196/196 216/216/216 213/213/213
f 224/224/224 213/213/213 216/216/216
f 193/193/193 226/226/226 218/218/218
f 195/195/195 215/215/215 226/226/226
f 202/202/202 218/218/218 215/215/215
f 226/226/226 215/215/215 218/218/218
f 197/197/197 228/228/228 220/220/220
f 193/193/193 217/217/217 228/228/228
f 201/201/201 220/220/220 217/217/217
f 228/228/228 217/217/217 220/220/220
f 199/199/199 230/230/230 222/222/222
f 197/197/197 219/219/219 230/230/230
f 198/198/198 222/222/222 219/219/219
f 230/230/230 219/219/219 222/222/222
f 200/200/200 232/232/232 214/214/214
f 199/199/199 221/221/221 232/232/232
f 192/192/192 214/214/214 221/221/221
f 232/232/232 221/221/221 214/214/214
f 233/233/233 245/245/245 247/247/247
f 244/244/244 246/246/246 245/245/245
f 238/238/238 247/247/247 246/246/246
f 245/245/245 246/246/246 247/247/247
f 233/233/233 247/247/247 249/249/249
f 238/238/238 248/248/248 247/247/247
f 234/234/234 249/249/249 248/248/248
f 247/247/247 248/248/248 249/249/249
f 233/233/233 249/249/249 251/251/251
f 234/234/234 250/250/250 249/249/249
f 240/240/240 251/251/251 250/250/250
f 249/249/249 250/250/250 251/251/251
f 233/233/233 251/251/251 253/253/253
f 240/240/240 252/252/252 251/251/251
f 243/243/243 253/253/253 252/252/252
f 251/251/251 252/252/252 253/253/253
f 233/233/233 253/253/253 245/245/245
f 243/243/243 254/254/254 253/253/253
f 244/244/244 245/245/245 254/254/254
f 253/253/253 254/254/254 245/245/245
f 234/234/234 248/248/248 256/256/256
f 238/238/238 255/255/255 248/248/248
f 242/242/242 256/256/256 255/255/255
f 248/248/248 255/255/255 256/256/256
f 238/238/238 246/246/246 258/258/258
f 244/244/244 257/257/257 246/246/246
f 237/237/237 258/258/258 257/257/257
f 246/246/246 257/257/257 258/258/258
f 244/244/244 254/254/254 260/260/260
f 243/243/243 259/259/259 254/254/254
f 235/235/235 260/260/260 259/259/259
f 254/254/254 259/259/259 260/260/260
f 243/243/243 252/252/252 262/262/262
f 240/240/240 261/261/261 252/252/252
f 239/239/239 262/262/262 261/261/261
f 252/252/252 261/261/261 262/262/262
f 240/240/240 250/250/250 264/264/264
f 234/234/234 263/263/263 250/250/250
f 241/241/241 264/264/264 263/263/263
f 250/250/250 263/263/263 264/264/264
f 236/236/236 265/265/265 267/267/267
f 242/242/242 266/266/266 265/265/265
f 237/237/237 267/267/267 266/266/266
f 265/265/265 266/266/266 267/267/267
f 236/236/236 267/267/267 269/269/269
f 237/237/237 268/268/268 267/267/267
f 235/235/235 269/269/269 268/268/268
f 267/267/267 268/268/268 269/269/269
f 236/236/236 269/269/269 271/271/271
f 235/235/235 270/270/270 269/269/269
f 239/239/239 271/271/271 270/270/270
f 269/269/269 270/270/270 271/271/271
f 236/236/236 271/271/271 273/273/273
f 239/239/239 272/272/272 271/271/271
f 241/241/241 273/273/273 272/272/272
f 271/271/271 272/272/272 273/273/273
f 236/236/236 273/273/273 265/265/265
f 241/241/241 274/274/274 273/273/273
f 242/242/242 265/265/265 274/274/274
f 273/273/273 274/274/274 265/265/265
f 237/237/237 266/266/266 258/258/258
f 242/242/242 255/255/255 266/266/266
f 238/238/238 258/258/258 255/255/255
f 266/266/266 255/255/255 258/258/258
f 235/235/235 268/268/268 260/260/260
f 237/237/237 257/257/257 268/268/268
f 244/244/244 260/260/260 257/257/257
f 268/268/268 257/257/257 260/260/260
f 239/239/239 270/270/270 262/262/262
f 235/235/235 259/259/259 270/270/270
f 243/243/243 262/262/262 259/259/259
f 270/270/270 259/259/259 262/262/262
f 241/241/241 272/272/272 264/264/264
f 239/239/239 261/261/261 272/272/272
f 240/240/240 264/264/264 261/261/261
f 272/272/272 261/261/261 264/264/264
f 242/242/242 274/274/274 256/256/256
f 241/241/241 263/263/263 274/274/274
f 234/234/234 256/256/256 263/263/263
f 274/274/274 263/263/263 256/256/256
f 275/275/275 287/287/287 289/289/289
f 286/286/286 288/288/288 287/287/287
f 280/280/280 289/289/289 288/288/288
f 287/287/287 288/288/288 289/289/289
f 275/275/275 289/289/289 291/291/291
f 280/280/280 290/290/290 289/289/289
f 276/276/276 291/291/291 290/290/290
f 289/289/289 290/290/290 291/291/291
f 275/275/275 291/291/291 293/293/293
f 276/276/276 292/292/292 291/291/291
f 282/282/282 293/293/293 292/292/292
f 291/291/291 292/292/292 293/293/293
f 275/275/275 293/293/293 295/295/295
f 282/282/282 294/294/294 293/293/293
f 285/285/285 295/295/295 294/294/294
f 293/293/293 294/294/294 295/295/295
f 275/275/275 295/295/295 287/287/287
f 285/285/285 296/296/296 295/295/295
f 286/286/286 287/287/287 296/296/296
f 295/295/295 296/296/296 287/287/287
f 276/276/276 290/290/290 298/298/298
f 280/280/280 297/297/297 290/290/290
f 284/284/284 298/298/298 297/297/297
f 290/290/290 297/297/297 298/298/298
f 280/280/280 288/288/288 300/300/300
f 286/286/286 299/299/299 288/288/288
f 279/279/279 300/300/300 299/299/299
f 288/288/288 299/299/299 300/300/300
f 286/286/286 296/296/296 302/302/302
f 285/285/285 301/301/301 296/296/296
f 277/277/277 302/302/302 301/301/301
f 296/296/296 301/301/301 302/302/302
f 285/285/285 294/294/294 304/304/304
f 282/282/282 303/303/303 294/294/294
f 281/281/281 304/304/304 303/303/303
f 294/294/294 303/303/303 304/304/304
f 282/282/282 292/292/292 306/306/306
f 276/276/276 305/305/305 292/292/292
f 283/283/283 306/306/306 305/305/305
f 292/292/292 305/305/305 306/306/306
f 278/278/278 307/307/307 309/309/309
f 284/284/284 308/308/308 307/307/307
f 279/279/279 309/309/309 308/308/308
f 307/307/307 308/308/308 309/309/309
f 278/278/278 309/309/309 311/311/311
f 279/279/279 310/310/310 309/309/309
f 277/277/277 311/311/311 310/310/310
f 309/309/309 310/310/310 311/311/311
f 278/278/278 311/311/311 313/313/313
f 277/277/277 312/312/312 311/311/311
f 281/281/281 313/313/313 312/312/312
f 311/311/311 312/312/312 313/313/313
f 278/278/278 313/313/313 315/315/315
f 281/281/281 314/314/314 313/313/313
f 283/283/283 315/315/315 314/314/314
f 313/313/313 314/314/314 315/315/315
f 278/278/278 315/315/315 307/307/307
f 283/283/283 316/316/316 315/315/315
f 284/284/284 307/307/307 316/316/316
f 315/315/315 316/316/316 307/307/307
f 279/279/279 308/308/308 300/300/300
f 284/284/284 297/297/297 308/308/308
f 280/280/280 300/300/300 297/297/297
f 308/308/308 297/297/297 300/300/300
f 277/277/277 310/310/310 302/302/302
f 279/279/279 299/299/299 310/310/310
f 286/286/286 302/302/302 299/299/299
f 310/310/310 299/299/299 302/302/302
f 281/281/281 312/312/312 304/304/304
f 277/277/277 301/301/301 312/312/312
f 285/285/285 304/304/304 301/301/301
f 312/312/312 301/301/301 304/304/304
f 283/283/283 314/314/314 306/306/306
f 281/281/281 303/303/303 314/314/314
f 282/282/282 306/306/306 303/303/303
f 314/314/314 303/303/303 306/306/306
f 284/284/284 316/316/316 298/298/298
f 283/283/283 305/305/305 316/316/316
f 276/276/276 298/298/298 305/305/305
f 316/316/316 305/305/305 298/298/298
f 317/317/317 318/318/318 319/319/319
f 318/318/318 320/320/320 319/319/319
f 319/319/319 320/320/320 321/321/321
f 320/320/320 322/322/322 321/321/321
f 321/321/321 322/322/322 323/323/323
f 322/322/322 324/324/324 323/323/323
f 323/323/323 324/324/324 325/325/325
f 324/324/324 326/326/326 325/325/325
f 325/325/325 326/326/326 327/327/327
f 326/326/326 328/328/328 327/327/327
f 327/327/327 328/328/328 329/329/329
f 328/328/328 330/330/330 329/329/329
f 331/331/331 332/332/332 333/333/333
f 332/332/332 334/334/334 333/333/333
f 333/333/333 334/334/334 335/335/335
f 334/334/334 336/336/336 335/335/335
f 335/335/335 336/336/336 337/337/337
f 336/336/336 338/338/338 337/337/337
f 337/337/337 338/338/338 339/339/339
f 338/338/338 340/340/340 339/339/339
f 339/339/339 340/340/340 341/341/341
f 340/340/340 342/342/342 341/341/341
f 341/341/341 342/342/342 343/343/343
f 342/342/342 344/344/344 343/343/343
f 345/345/345 346/346/346 347/347/347
f 346/346/346 348/348/348 347/347/347
f 347/347/347 348/348/348 349/349/349
f 348/348/348 350/350/350 349/349/349
f 349/349/349 350/350/350 351/351/351
f 350/350/350 352/352/352 351/351/351
f 351/351/351 352/352/352 353/353/353
f 352/352/352 354/354/354 353/353/353
f 353/353/353 354/354/354 355/355/355
f 354/354/354 356/356/356 355/355/355
f 355/355/355 356/356/356 357/357/357
f 356/356/356 358/358/358 357/357/357
f 359/359/359 360/360/360 361/361/361
f 360/360/360 362/362/362 361/361/361
f 361/361/361 362/362/362 363/363/363
f 362/362/362 364/364/364 363/363/363
f 363/363/363 364/364/364 365/365/365
f 364/364/364 366/366/366 365/365/365
f 365/365/365 366/366/366 367/367/367
f 366/366/366 368/368/368 367/367/367
f 367/367/367 368/368/368 369/369/369
f 368/368/368 370/370/370 369/369/369
f 369/369/369 370/370/370 371/371/371
f 370/370/370 372/372/372 371/371/371
f 373/373/373 374/374/374 375/375/375
f 374/374/374 376/376/376 375/375/375
f 375/375/375 376/376/376 377/377/377
f 376/376/376 378/378/378 377/377/377
f 377/377/377 378/378/378 379/379/379
f 378/378/378 380/380/380 379/379/379
f 379/379/379 380/380/380 381/381/381
f 380/380/380 382/382/382 381/381/381
f 381/381/381 382/382/382 383/383/383
f 382/382/382 384/384/384 383/383/383
f 383/383/383 384/384/384 385/385/385
f 384/384/384 386/386/386 385/385/385
f 387/387/387 388/388/388 389/389/389
f 388/388/388 390/390/390 389/389/389
f 389/389/389 390/390/390 391/391/391
f 390/390/390 392/392/392 391/391/391
f 391/391/391 392/392/392 393/393/393
f 392/392/392 394/394/394 393/393/393
f 393/393/393 394/394/394 395/395/395
f 394/394/394 396/396/396 395/395/395
f 395/395/395 396/396/396 397/397/397
f 396/396/396 398/398/398 397/397/397
f 397/397/397 398/398/398 399/399/399
f 398/398/398 400/400/400 399/399/399
f 401/401/401 402/402/402 403/403/403
f 402/402/402 404/404/404 403/403/403
f 403/403/403 404/404/404 405/405/405
f 404/404/404 406/406/406 405/405/405
f 405/405/405 406/406/406 407/407/407
f 406/406/406 408/408/408 407/407/407
f 407/407/407 408/408/408 409/409/409
f 408/408/408 410/410/410 409/409/409
f 409/409/409 410/410/410 411/411/411
f 410/410/410 412/412/412 411/411/411
f 411/411/411 412/412/412 413/413/413
f 412/412/412 414/414/414 413/413/413
