# Procedurally generated savanna acacia tree
# Format note: vt.x carries a custom 'heightT' material-blend scalar,
# not a real texture coordinate (see ObjTreeMeshLoader.java).
v 0.220000 0.000000 0.000000
v 0.150000 0.420000 0.000000
v 0.177984 0.000000 0.129313
v 0.121353 0.420000 0.088168
v 0.067984 0.000000 0.209232
v 0.046353 0.420000 0.142658
v -0.067984 0.000000 0.209232
v -0.046353 0.420000 0.142658
v -0.177984 0.000000 0.129313
v -0.121353 0.420000 0.088168
v -0.220000 0.000000 0.000000
v -0.150000 0.420000 0.000000
v -0.177984 0.000000 -0.129313
v -0.121353 0.420000 -0.088168
v -0.067984 0.000000 -0.209232
v -0.046353 0.420000 -0.142658
v 0.067984 0.000000 -0.209232
v 0.046353 0.420000 -0.142658
v 0.177984 0.000000 -0.129313
v 0.121353 0.420000 -0.088168
v 0.220000 0.000000 -0.000000
v 0.150000 0.420000 -0.000000
v -1.419474 0.665065 0.000000
v 1.419474 0.665065 0.000000
v -1.419474 0.494935 0.000000
v 1.419474 0.494935 0.000000
v 0.000000 0.527427 1.999029
v 0.000000 0.632573 1.999029
v 0.000000 0.527427 -1.999029
v 0.000000 0.632573 -1.999029
v 2.296757 0.580000 -1.235468
v 2.296757 0.580000 1.235468
v -2.296757 0.580000 -1.235468
v -2.296757 0.580000 1.235468
v -2.184346 0.630000 0.726190
v -1.350000 0.610902 1.901190
v -0.834346 0.660902 1.175000
v 0.834346 0.660902 1.175000
v 0.000000 0.680000 0.000000
v 0.834346 0.660902 -1.175000
v -0.834346 0.660902 -1.175000
v -1.350000 0.610902 -1.901190
v -2.184346 0.630000 -0.726190
v -2.700000 0.580000 0.000000
v 1.350000 0.610902 1.901190
v 2.184346 0.630000 0.726190
v -1.350000 0.549098 1.901190
v 0.000000 0.580000 2.350000
v -2.184346 0.530000 -0.726190
v -2.184346 0.530000 0.726190
v 0.000000 0.580000 -2.350000
v -1.350000 0.549098 -1.901190
v 2.184346 0.630000 -0.726190
v 1.350000 0.610902 -1.901190
v 2.184346 0.530000 0.726190
v 1.350000 0.549098 1.901190
v 0.834346 0.499098 1.175000
v -0.834346 0.499098 1.175000
v 0.000000 0.480000 0.000000
v -0.834346 0.499098 -1.175000
v 0.834346 0.499098 -1.175000
v 1.350000 0.549098 -1.901190
v 2.184346 0.530000 -0.726190
v 2.700000 0.580000 0.000000
v 1.352036 0.579546 0.000000
v 2.647964 0.579546 0.000000
v 1.352036 0.460454 0.000000
v 2.647964 0.460454 0.000000
v 2.000000 0.483199 0.903816
v 2.000000 0.556801 0.903816
v 2.000000 0.483199 -0.903816
v 2.000000 0.556801 -0.903816
v 3.048427 0.520000 -0.558589
v 3.048427 0.520000 0.558589
v 0.951573 0.520000 -0.558589
v 0.951573 0.520000 0.558589
v 1.002887 0.555000 0.328331
v 1.383750 0.541631 0.859581
v 1.619137 0.576631 0.531250
v 2.380863 0.576631 0.531250
v 2.000000 0.590000 0.000000
v 2.380863 0.576631 -0.531250
v 1.619137 0.576631 -0.531250
v 1.383750 0.541631 -0.859581
v 1.002887 0.555000 -0.328331
v 0.767500 0.520000 0.000000
v 2.616250 0.541631 0.859581
v 2.997113 0.555000 0.328331
v 1.383750 0.498369 0.859581
v 2.000000 0.520000 1.062500
v 1.002887 0.485000 -0.328331
v 1.002887 0.485000 0.328331
v 2.000000 0.520000 -1.062500
v 1.383750 0.498369 -0.859581
v 2.997113 0.555000 -0.328331
v 2.616250 0.541631 -0.859581
v 2.997113 0.485000 0.328331
v 2.616250 0.498369 0.859581
v 2.380863 0.463369 0.531250
v 1.619137 0.463369 0.531250
v 2.000000 0.450000 0.000000
v 1.619137 0.463369 -0.531250
v 2.380863 0.463369 -0.531250
v 2.616250 0.498369 -0.859581
v 2.997113 0.485000 -0.328331
v 3.232500 0.520000 0.000000
v -0.184403 0.534392 1.616796
v 1.420471 0.534392 1.616796
v -0.184403 0.415301 1.616796
v 1.420471 0.415301 1.616796
v 0.618034 0.438045 2.736081
v 0.618034 0.511647 2.736081
v 0.618034 0.438045 0.497511
v 0.618034 0.511647 0.497511
v 1.916405 0.474846 0.925040
v 1.916405 0.474846 2.308552
v -0.680337 0.474846 0.925040
v -0.680337 0.474846 2.308552
v -0.616790 0.509846 2.023400
v -0.145129 0.496477 2.681300
v 0.146373 0.531477 2.274695
v 1.089695 0.531477 2.274695
v 0.618034 0.544846 1.616796
v 1.089695 0.531477 0.958897
v 0.146373 0.531477 0.958897
v -0.145129 0.496477 0.552293
v -0.616790 0.509846 1.210192
v -0.908292 0.474846 1.616796
v 1.381197 0.496477 2.681300
v 1.852858 0.509846 2.023400
v -0.145129 0.453215 2.681300
v 0.618034 0.474846 2.932595
v -0.616790 0.439846 1.210192
v -0.616790 0.439846 2.023400
v 0.618034 0.474846 0.300997
v -0.145129 0.453215 0.552293
v 1.852858 0.509846 1.210192
v 1.381197 0.496477 0.552293
v 1.852858 0.439846 2.023400
v 1.381197 0.453215 2.681300
v 1.089695 0.418215 2.274695
v 0.146373 0.418215 2.274695
v 0.618034 0.404846 1.616796
v 0.146373 0.418215 0.958897
v 1.089695 0.418215 0.958897
v 1.381197 0.453215 0.552293
v 1.852858 0.439846 1.210192
v 2.144360 0.474846 1.616796
v -2.493813 0.500874 0.999235
v -0.742254 0.500874 0.999235
v -2.493813 0.381783 0.999235
v -0.742254 0.381783 0.999235
v -1.618034 0.404527 2.220822
v -1.618034 0.478129 2.220822
v -1.618034 0.404527 -0.222352
v -1.618034 0.478129 -0.222352
v -0.200993 0.441328 0.244253
v -0.200993 0.441328 1.754217
v -3.035075 0.441328 0.244253
v -3.035075 0.441328 1.754217
v -2.965720 0.476328 1.443002
v -2.450950 0.462959 2.161033
v -2.132804 0.497959 1.717266
v -1.103264 0.497959 1.717266
v -1.618034 0.511328 0.999235
v -1.103264 0.497959 0.281204
v -2.132804 0.497959 0.281204
v -2.450950 0.462959 -0.162563
v -2.965720 0.476328 0.555467
v -3.283866 0.441328 0.999235
v -0.785118 0.462959 2.161033
v -0.270348 0.476328 1.443002
v -2.450950 0.419697 2.161033
v -1.618034 0.441328 2.435297
v -2.965720 0.406328 0.555467
v -2.965720 0.406328 1.443002
v -1.618034 0.441328 -0.436827
v -2.450950 0.419697 -0.162563
v -0.270348 0.476328 0.555467
v -0.785118 0.462959 -0.162563
v -0.270348 0.406328 1.443002
v -0.785118 0.419697 2.161033
v -1.103264 0.384697 1.717266
v -2.132804 0.384697 1.717266
v -1.618034 0.371328 0.999235
v -2.132804 0.384697 0.281204
v -1.103264 0.384697 0.281204
v -0.785118 0.419697 -0.162563
v -0.270348 0.406328 0.555467
v 0.047798 0.441328 0.999235
v -2.447504 0.554665 -0.999235
v -0.788564 0.554665 -0.999235
v -2.447504 0.435574 -0.999235
v -0.788564 0.435574 -0.999235
v -1.618034 0.458318 0.157757
v -1.618034 0.531920 0.157757
v -1.618034 0.458318 -2.156227
v -1.618034 0.531920 -2.156227
v -0.275923 0.495119 -1.714295
v -0.275923 0.495119 -0.284175
v -2.960144 0.495119 -1.714295
v -2.960144 0.495119 -0.284175
v -2.894457 0.530119 -0.578933
v -2.406907 0.516750 0.101130
v -2.105584 0.551750 -0.319172
v -1.130484 0.551750 -0.319172
v -1.618034 0.565119 -0.999235
v -1.130484 0.551750 -1.679298
v -2.105584 0.551750 -1.679298
v -2.406907 0.516750 -2.099600
v -2.894457 0.530119 -1.419537
v -3.195780 0.495119 -0.999235
v -0.829161 0.516750 0.101130
v -0.341611 0.530119 -0.578933
v -2.406907 0.473488 0.101130
v -1.618034 0.495119 0.360891
v -2.894457 0.460119 -1.419537
v -2.894457 0.460119 -0.578933
v -1.618034 0.495119 -2.359360
v -2.406907 0.473488 -2.099600
v -0.341611 0.530119 -1.419537
v -0.829161 0.516750 -2.099600
v -0.341611 0.460119 -0.578933
v -0.829161 0.473488 0.101130
v -1.130484 0.438488 -0.319172
v -2.105584 0.438488 -0.319172
v -1.618034 0.425119 -0.999235
v -2.105584 0.438488 -1.679298
v -1.130484 0.438488 -1.679298
v -0.829161 0.473488 -2.099600
v -0.341611 0.460119 -1.419537
v -0.040288 0.495119 -0.999235
v -0.069797 0.574321 -1.616796
v 1.305865 0.574321 -1.616796
v -0.069797 0.455230 -1.616796
v 1.305865 0.455230 -1.616796
v 0.618034 0.477975 -0.657370
v 0.618034 0.551577 -0.657370
v 0.618034 0.477975 -2.576222
v 0.618034 0.551577 -2.576222
v 1.730968 0.514776 -2.209754
v 1.730968 0.514776 -1.023838
v -0.494900 0.514776 -2.209754
v -0.494900 0.514776 -1.023838
v -0.440429 0.549776 -1.268264
v -0.036132 0.536407 -0.704328
v 0.213737 0.571407 -1.052860
v 1.022331 0.571407 -1.052860
v 0.618034 0.584776 -1.616796
v 1.022331 0.571407 -2.180732
v 0.213737 0.571407 -2.180732
v -0.036132 0.536407 -2.529264
v -0.440429 0.549776 -1.965328
v -0.690298 0.514776 -1.616796
v 1.272200 0.536407 -0.704328
v 1.676497 0.549776 -1.268264
v -0.036132 0.493145 -0.704328
v 0.618034 0.514776 -0.488924
v -0.440429 0.479776 -1.965328
v -0.440429 0.479776 -1.268264
v 0.618034 0.514776 -2.744669
v -0.036132 0.493145 -2.529264
v 1.676497 0.549776 -1.965328
v 1.272200 0.536407 -2.529264
v 1.676497 0.479776 -1.268264
v 1.272200 0.493145 -0.704328
v 1.022331 0.458145 -1.052860
v 0.213737 0.458145 -1.052860
v 0.618034 0.444776 -1.616796
v 0.213737 0.458145 -2.180732
v 1.022331 0.458145 -2.180732
v 1.272200 0.493145 -2.529264
v 1.676497 0.479776 -1.965328
v 1.926366 0.514776 -1.616796
v 0.000000 0.420000 -0.090000
v 0.000000 0.580000 -0.035000
v 0.077942 0.420000 -0.045000
v 0.030311 0.580000 -0.017500
v 0.077942 0.420000 0.045000
v 0.030311 0.580000 0.017500
v 0.000000 0.420000 0.090000
v 0.000000 0.580000 0.035000
v -0.077942 0.420000 0.045000
v -0.030311 0.580000 0.017500
v -0.077942 0.420000 -0.045000
v -0.030311 0.580000 -0.017500
v -0.000000 0.420000 -0.090000
v -0.000000 0.580000 -0.035000
v 0.120000 0.320000 0.090000
v 2.000000 0.520000 0.035000
v 0.111755 0.397505 0.045000
v 1.996794 0.550141 0.017500
v 0.111755 0.397505 -0.045000
v 1.996794 0.550141 -0.017500
v 0.120000 0.320000 -0.090000
v 2.000000 0.520000 -0.035000
v 0.128245 0.242495 -0.045000
v 2.003206 0.489859 -0.017500
v 0.128245 0.242495 0.045000
v 2.003206 0.489859 0.017500
v 0.120000 0.320000 0.090000
v 2.000000 0.520000 0.035000
v -0.041220 0.270000 0.144225
v 0.585341 0.474846 1.629293
v -0.002697 0.347320 0.118973
v 0.600322 0.504915 1.619473
v 0.081370 0.347320 0.086838
v 0.633015 0.504915 1.606976
v 0.126915 0.270000 0.079954
v 0.650727 0.474846 1.604299
v 0.088392 0.192680 0.105206
v 0.635746 0.444777 1.614119
v 0.004324 0.192680 0.137342
v 0.603053 0.444777 1.626616
v -0.041220 0.270000 0.144225
v 0.585341 0.474846 1.629293
v -0.149389 0.220000 -0.013522
v -1.636424 0.441328 0.969456
v -0.117569 0.297348 0.019717
v -1.624050 0.471408 0.982382
v -0.070280 0.297348 0.096292
v -1.605660 0.471408 1.012161
v -0.054810 0.220000 0.139628
v -1.599644 0.441328 1.029014
v -0.086630 0.142652 0.106389
v -1.612018 0.411248 1.016088
v -0.133920 0.142652 0.029814
v -1.630408 0.411248 0.986309
v -0.149389 0.220000 -0.013522
v -1.636424 0.441328 0.969456
v -0.054810 0.170000 -0.139628
v -1.599644 0.495119 -1.029014
v -0.066550 0.246676 -0.093988
v -1.604209 0.524938 -1.011265
v -0.113840 0.246676 -0.017414
v -1.622600 0.524938 -0.981486
v -0.149389 0.170000 0.013522
v -1.636424 0.495119 -0.969456
v -0.137649 0.093324 -0.032117
v -1.631859 0.465301 -0.987204
v -0.090359 0.093324 -0.108692
v -1.613468 0.465301 -1.016983
v -0.054810 0.170000 -0.139628
v -1.599644 0.495119 -1.029014
v 0.126915 0.120000 -0.079954
v 0.650727 0.514776 -1.604299
v 0.078257 0.195702 -0.078693
v 0.631804 0.544216 -1.603808
v -0.005811 0.195702 -0.110828
v 0.599111 0.544216 -1.616306
v -0.041220 0.120000 -0.144225
v 0.585341 0.514776 -1.629293
v 0.007438 0.044298 -0.145487
v 0.604264 0.485336 -1.629784
v 0.091505 0.044298 -0.113351
v 0.636956 0.485336 -1.617287
v 0.126915 0.120000 -0.079954
v 0.650727 0.514776 -1.604299
vt 0.000000 0.0
vt 0.420000 0.0
vt 0.000000 0.0
vt 0.420000 0.0
vt 0.000000 0.0
vt 0.420000 0.0
vt 0.000000 0.0
vt 0.420000 0.0
vt 0.000000 0.0
vt 0.420000 0.0
vt 0.000000 0.0
vt 0.420000 0.0
vt 0.000000 0.0
vt 0.420000 0.0
vt 0.000000 0.0
vt 0.420000 0.0
vt 0.000000 0.0
vt 0.420000 0.0
vt 0.000000 0.0
vt 0.420000 0.0
vt 0.000000 0.0
vt 0.420000 0.0
vt 0.900000 0.0
vt 0.900000 0.0
vt 0.900000 0.0
vt 0.900000 0.0
vt 0.900000 0.0
vt 0.900000 0.0
vt 0.900000 0.0
vt 0.900000 0.0
vt 0.900000 0.0
vt 0.900000 0.0
vt 0.900000 0.0
vt 0.900000 0.0
vt 0.900000 0.0
vt 0.900000 0.0
vt 0.900000 0.0
vt 0.900000 0.0
vt 0.900000 0.0
vt 0.900000 0.0
vt 0.900000 0.0
vt 0.900000 0.0
vt 0.900000 0.0
vt 0.900000 0.0
vt 0.900000 0.0
vt 0.900000 0.0
vt 0.900000 0.0
vt 0.900000 0.0
vt 0.900000 0.0
vt 0.900000 0.0
vt 0.900000 0.0
vt 0.900000 0.0
vt 0.900000 0.0
vt 0.900000 0.0
vt 0.900000 0.0
vt 0.900000 0.0
vt 0.900000 0.0
vt 0.900000 0.0
vt 0.900000 0.0
vt 0.900000 0.0
vt 0.900000 0.0
vt 0.900000 0.0
vt 0.900000 0.0
vt 0.900000 0.0
vt 0.850000 0.0
vt 0.850000 0.0
vt 0.850000 0.0
vt 0.850000 0.0
vt 0.850000 0.0
vt 0.850000 0.0
vt 0.850000 0.0
vt 0.850000 0.0
vt 0.850000 0.0
vt 0.850000 0.0
vt 0.850000 0.0
vt 0.850000 0.0
vt 0.850000 0.0
vt 0.850000 0.0
vt 0.850000 0.0
vt 0.850000 0.0
vt 0.850000 0.0
vt 0.850000 0.0
vt 0.850000 0.0
vt 0.850000 0.0
vt 0.850000 0.0
vt 0.850000 0.0
vt 0.850000 0.0
vt 0.850000 0.0
vt 0.850000 0.0
vt 0.850000 0.0
vt 0.850000 0.0
vt 0.850000 0.0
vt 0.850000 0.0
vt 0.850000 0.0
vt 0.850000 0.0
vt 0.850000 0.0
vt 0.850000 0.0
vt 0.850000 0.0
vt 0.850000 0.0
vt 0.850000 0.0
vt 0.850000 0.0
vt 0.850000 0.0
vt 0.850000 0.0
vt 0.850000 0.0
vt 0.850000 0.0
vt 0.850000 0.0
vt 0.850000 0.0
vt 0.850000 0.0
vt 0.850000 0.0
vt 0.850000 0.0
vt 0.850000 0.0
vt 0.850000 0.0
vt 0.850000 0.0
vt 0.850000 0.0
vt 0.850000 0.0
vt 0.850000 0.0
vt 0.850000 0.0
vt 0.850000 0.0
vt 0.850000 0.0
vt 0.850000 0.0
vt 0.850000 0.0
vt 0.850000 0.0
vt 0.850000 0.0
vt 0.850000 0.0
vt 0.850000 0.0
vt 0.850000 0.0
vt 0.850000 0.0
vt 0.850000 0.0
vt 0.850000 0.0
vt 0.850000 0.0
vt 0.850000 0.0
vt 0.850000 0.0
vt 0.850000 0.0
vt 0.850000 0.0
vt 0.850000 0.0
vt 0.850000 0.0
vt 0.850000 0.0
vt 0.850000 0.0
vt 0.850000 0.0
vt 0.850000 0.0
vt 0.850000 0.0
vt 0.850000 0.0
vt 0.850000 0.0
vt 0.850000 0.0
vt 0.850000 0.0
vt 0.850000 0.0
vt 0.850000 0.0
vt 0.850000 0.0
vt 0.850000 0.0
vt 0.850000 0.0
vt 0.850000 0.0
vt 0.850000 0.0
vt 0.850000 0.0
vt 0.850000 0.0
vt 0.850000 0.0
vt 0.850000 0.0
vt 0.850000 0.0
vt 0.850000 0.0
vt 0.850000 0.0
vt 0.850000 0.0
vt 0.850000 0.0
vt 0.850000 0.0
vt 0.850000 0.0
vt 0.850000 0.0
vt 0.850000 0.0
vt 0.850000 0.0
vt 0.850000 0.0
vt 0.850000 0.0
vt 0.850000 0.0
vt 0.850000 0.0
vt 0.850000 0.0
vt 0.850000 0.0
vt 0.850000 0.0
vt 0.850000 0.0
vt 0.850000 0.0
vt 0.850000 0.0
vt 0.850000 0.0
vt 0.850000 0.0
vt 0.850000 0.0
vt 0.850000 0.0
vt 0.850000 0.0
vt 0.850000 0.0
vt 0.850000 0.0
vt 0.850000 0.0
vt 0.850000 0.0
vt 0.850000 0.0
vt 0.850000 0.0
vt 0.850000 0.0
vt 0.850000 0.0
vt 0.850000 0.0
vt 0.850000 0.0
vt 0.850000 0.0
vt 0.850000 0.0
vt 0.850000 0.0
vt 0.850000 0.0
vt 0.850000 0.0
vt 0.850000 0.0
vt 0.850000 0.0
vt 0.850000 0.0
vt 0.850000 0.0
vt 0.850000 0.0
vt 0.850000 0.0
vt 0.850000 0.0
vt 0.850000 0.0
vt 0.850000 0.0
vt 0.850000 0.0
vt 0.850000 0.0
vt 0.850000 0.0
vt 0.850000 0.0
vt 0.850000 0.0
vt 0.850000 0.0
vt 0.850000 0.0
vt 0.850000 0.0
vt 0.850000 0.0
vt 0.850000 0.0
vt 0.850000 0.0
vt 0.850000 0.0
vt 0.850000 0.0
vt 0.850000 0.0
vt 0.850000 0.0
vt 0.850000 0.0
vt 0.850000 0.0
vt 0.850000 0.0
vt 0.850000 0.0
vt 0.850000 0.0
vt 0.850000 0.0
vt 0.850000 0.0
vt 0.850000 0.0
vt 0.850000 0.0
vt 0.850000 0.0
vt 0.850000 0.0
vt 0.850000 0.0
vt 0.850000 0.0
vt 0.850000 0.0
vt 0.850000 0.0
vt 0.850000 0.0
vt 0.850000 0.0
vt 0.850000 0.0
vt 0.850000 0.0
vt 0.850000 0.0
vt 0.850000 0.0
vt 0.850000 0.0
vt 0.850000 0.0
vt 0.850000 0.0
vt 0.850000 0.0
vt 0.850000 0.0
vt 0.850000 0.0
vt 0.850000 0.0
vt 0.850000 0.0
vt 0.850000 0.0
vt 0.850000 0.0
vt 0.850000 0.0
vt 0.850000 0.0
vt 0.850000 0.0
vt 0.850000 0.0
vt 0.850000 0.0
vt 0.850000 0.0
vt 0.850000 0.0
vt 0.850000 0.0
vt 0.850000 0.0
vt 0.850000 0.0
vt 0.850000 0.0
vt 0.850000 0.0
vt 0.850000 0.0
vt 0.850000 0.0
vt 0.850000 0.0
vt 0.850000 0.0
vt 0.850000 0.0
vt 0.850000 0.0
vt 0.850000 0.0
vt 0.850000 0.0
vt 0.850000 0.0
vt 0.850000 0.0
vt 0.850000 0.0
vt 0.350000 0.0
vt 0.350000 0.0
vt 0.350000 0.0
vt 0.350000 0.0
vt 0.350000 0.0
vt 0.350000 0.0
vt 0.350000 0.0
vt 0.350000 0.0
vt 0.350000 0.0
vt 0.350000 0.0
vt 0.350000 0.0
vt 0.350000 0.0
vt 0.350000 0.0
vt 0.350000 0.0
vt 0.350000 0.0
vt 0.350000 0.0
vt 0.350000 0.0
vt 0.350000 0.0
vt 0.350000 0.0
vt 0.350000 0.0
vt 0.350000 0.0
vt 0.350000 0.0
vt 0.350000 0.0
vt 0.350000 0.0
vt 0.350000 0.0
vt 0.350000 0.0
vt 0.350000 0.0
vt 0.350000 0.0
vt 0.350000 0.0
vt 0.350000 0.0
vt 0.350000 0.0
vt 0.350000 0.0
vt 0.350000 0.0
vt 0.350000 0.0
vt 0.350000 0.0
vt 0.350000 0.0
vt 0.350000 0.0
vt 0.350000 0.0
vt 0.350000 0.0
vt 0.350000 0.0
vt 0.350000 0.0
vt 0.350000 0.0
vt 0.350000 0.0
vt 0.350000 0.0
vt 0.350000 0.0
vt 0.350000 0.0
vt 0.350000 0.0
vt 0.350000 0.0
vt 0.350000 0.0
vt 0.350000 0.0
vt 0.350000 0.0
vt 0.350000 0.0
vt 0.350000 0.0
vt 0.350000 0.0
vt 0.350000 0.0
vt 0.350000 0.0
vt 0.350000 0.0
vt 0.350000 0.0
vt 0.350000 0.0
vt 0.350000 0.0
vt 0.350000 0.0
vt 0.350000 0.0
vt 0.350000 0.0
vt 0.350000 0.0
vt 0.350000 0.0
vt 0.350000 0.0
vt 0.350000 0.0
vt 0.350000 0.0
vt 0.350000 0.0
vt 0.350000 0.0
vt 0.350000 0.0
vt 0.350000 0.0
vt 0.350000 0.0
vt 0.350000 0.0
vt 0.350000 0.0
vt 0.350000 0.0
vt 0.350000 0.0
vt 0.350000 0.0
vt 0.350000 0.0
vt 0.350000 0.0
vt 0.350000 0.0
vt 0.350000 0.0
vt 0.350000 0.0
vt 0.350000 0.0
vn 1.000000 0.000000 0.000000
vn 1.000000 0.000000 0.000000
vn 0.809017 0.000000 0.587785
vn 0.809017 0.000000 0.587785
vn 0.309017 0.000000 0.951057
vn 0.309017 0.000000 0.951057
vn -0.309017 0.000000 0.951057
vn -0.309017 0.000000 0.951057
vn -0.809017 0.000000 0.587785
vn -0.809017 0.000000 0.587785
vn -1.000000 0.000000 0.000000
vn -1.000000 0.000000 0.000000
vn -0.809017 0.000000 -0.587785
vn -0.809017 0.000000 -0.587785
vn -0.309017 0.000000 -0.951057
vn -0.309017 0.000000 -0.951057
vn 0.309017 0.000000 -0.951057
vn 0.309017 0.000000 -0.951057
vn 0.809017 0.000000 -0.587785
vn 0.809017 0.000000 -0.587785
vn 1.000000 0.000000 -0.000000
vn 1.000000 0.000000 -0.000000
vn -0.022884 0.999738 0.000000
vn 0.022884 0.999738 0.000000
vn -0.022884 -0.999738 0.000000
vn 0.022884 -0.999738 0.000000
vn 0.000000 -0.997638 0.068690
vn 0.000000 0.997638 0.068690
vn 0.000000 -0.997638 -0.068690
vn 0.000000 0.997638 -0.068690
vn 0.815352 0.000000 -0.578966
vn 0.815352 0.000000 0.578966
vn -0.815352 0.000000 -0.578966
vn -0.815352 0.000000 0.578966
vn -0.059799 0.997865 0.026243
vn -0.059453 0.992094 0.110525
vn -0.014141 0.999554 0.026288
vn 0.014141 0.999554 0.026288
vn 0.000000 1.000000 0.000000
vn 0.014141 0.999554 -0.026288
vn -0.014141 0.999554 -0.026288
vn -0.059453 0.992094 -0.110525
vn -0.059799 0.997865 -0.026243
vn -1.000000 0.000000 0.000000
vn 0.059453 0.992094 0.110525
vn 0.059799 0.997865 0.026243
vn -0.059453 -0.992094 0.110525
vn 0.000000 0.000000 1.000000
vn -0.059799 -0.997865 -0.026243
vn -0.059799 -0.997865 0.026243
vn 0.000000 0.000000 -1.000000
vn -0.059453 -0.992094 -0.110525
vn 0.059799 0.997865 -0.026243
vn 0.059453 0.992094 -0.110525
vn 0.059799 -0.997865 0.026243
vn 0.059453 -0.992094 0.110525
vn 0.014141 -0.999554 0.026288
vn -0.014141 -0.999554 0.026288
vn 0.000000 -1.000000 0.000000
vn -0.014141 -0.999554 -0.026288
vn 0.014141 -0.999554 -0.026288
vn 0.059453 -0.992094 -0.110525
vn 0.059799 -0.997865 -0.026243
vn 1.000000 0.000000 0.000000
vn -0.035080 0.999385 0.000000
vn 0.035080 0.999385 0.000000
vn -0.035080 -0.999385 0.000000
vn 0.035080 -0.999385 0.000000
vn 0.000000 -0.994366 0.105999
vn 0.000000 0.994366 0.105999
vn 0.000000 -0.994366 -0.105999
vn 0.000000 0.994366 -0.105999
vn 0.812720 0.000000 -0.582655
vn 0.812720 0.000000 0.582655
vn -0.812720 0.000000 -0.582655
vn -0.812720 0.000000 0.582655
vn -0.091436 0.994987 0.040513
vn -0.090190 0.981433 0.169280
vn -0.021671 0.998937 0.040674
vn 0.021671 0.998937 0.040674
vn 0.000000 1.000000 0.000000
vn 0.021671 0.998937 -0.040674
vn -0.021671 0.998937 -0.040674
vn -0.090190 0.981433 -0.169280
vn -0.091436 0.994987 -0.040513
vn -1.000000 0.000000 0.000000
vn 0.090190 0.981433 0.169280
vn 0.091436 0.994987 0.040513
vn -0.090190 -0.981433 0.169280
vn 0.000000 0.000000 1.000000
vn -0.091436 -0.994987 -0.040513
vn -0.091436 -0.994987 0.040513
vn 0.000000 0.000000 -1.000000
vn -0.090190 -0.981433 -0.169280
vn 0.091436 0.994987 -0.040513
vn 0.090190 0.981433 -0.169280
vn 0.091436 -0.994987 0.040513
vn 0.090190 -0.981433 0.169280
vn 0.021671 -0.998937 0.040674
vn -0.021671 -0.998937 0.040674
vn 0.000000 -1.000000 0.000000
vn -0.021671 -0.998937 -0.040674
vn 0.021671 -0.998937 -0.040674
vn 0.090190 -0.981433 -0.169280
vn 0.091436 -0.994987 -0.040513
vn 1.000000 0.000000 0.000000
vn -0.028333 0.999599 0.000000
vn 0.028333 0.999599 0.000000
vn -0.028333 -0.999599 0.000000
vn 0.028333 -0.999599 0.000000
vn 0.000000 -0.996316 0.085762
vn 0.000000 0.996316 0.085762
vn 0.000000 -0.996316 -0.085762
vn 0.000000 0.996316 -0.085762
vn 0.812720 0.000000 -0.582655
vn 0.812720 0.000000 0.582655
vn -0.812720 0.000000 -0.582655
vn -0.812720 0.000000 0.582655
vn -0.073963 0.996722 0.032771
vn -0.073299 0.987775 0.137576
vn -0.017505 0.999307 0.032856
vn 0.017505 0.999307 0.032856
vn 0.000000 1.000000 0.000000
vn 0.017505 0.999307 -0.032856
vn -0.017505 0.999307 -0.032856
vn -0.073299 0.987775 -0.137576
vn -0.073963 0.996722 -0.032771
vn -1.000000 0.000000 0.000000
vn 0.073299 0.987775 0.137576
vn 0.073963 0.996722 0.032771
vn -0.073299 -0.987775 0.137576
vn 0.000000 0.000000 1.000000
vn -0.073963 -0.996722 -0.032771
vn -0.073963 -0.996722 0.032771
vn 0.000000 0.000000 -1.000000
vn -0.073299 -0.987775 -0.137576
vn 0.073963 0.996722 -0.032771
vn 0.073299 0.987775 -0.137576
vn 0.073963 -0.996722 0.032771
vn 0.073299 -0.987775 0.137576
vn 0.017505 -0.999307 0.032856
vn -0.017505 -0.999307 0.032856
vn 0.000000 -1.000000 0.000000
vn -0.017505 -0.999307 -0.032856
vn 0.017505 -0.999307 -0.032856
vn 0.073299 -0.987775 -0.137576
vn 0.073963 -0.996722 -0.032771
vn 1.000000 0.000000 0.000000
vn -0.025962 0.999663 0.000000
vn 0.025962 0.999663 0.000000
vn -0.025962 -0.999663 0.000000
vn 0.025962 -0.999663 0.000000
vn 0.000000 -0.996904 0.078626
vn 0.000000 0.996904 0.078626
vn 0.000000 -0.996904 -0.078626
vn 0.000000 0.996904 -0.078626
vn 0.812720 0.000000 -0.582655
vn 0.812720 0.000000 0.582655
vn -0.812720 0.000000 -0.582655
vn -0.812720 0.000000 0.582655
vn -0.067804 0.997246 0.030043
vn -0.067292 0.989707 0.126301
vn -0.016041 0.999418 0.030108
vn 0.016041 0.999418 0.030108
vn 0.000000 1.000000 0.000000
vn 0.016041 0.999418 -0.030108
vn -0.016041 0.999418 -0.030108
vn -0.067292 0.989707 -0.126301
vn -0.067804 0.997246 -0.030043
vn -1.000000 0.000000 0.000000
vn 0.067292 0.989707 0.126301
vn 0.067804 0.997246 0.030043
vn -0.067292 -0.989707 0.126301
vn 0.000000 0.000000 1.000000
vn -0.067804 -0.997246 -0.030043
vn -0.067804 -0.997246 0.030043
vn 0.000000 0.000000 -1.000000
vn -0.067292 -0.989707 -0.126301
vn 0.067804 0.997246 -0.030043
vn 0.067292 0.989707 -0.126301
vn 0.067804 -0.997246 0.030043
vn 0.067292 -0.989707 0.126301
vn 0.016041 -0.999418 0.030108
vn -0.016041 -0.999418 0.030108
vn 0.000000 -1.000000 0.000000
vn -0.016041 -0.999418 -0.030108
vn 0.016041 -0.999418 -0.030108
vn 0.067292 -0.989707 -0.126301
vn 0.067804 -0.997246 -0.030043
vn 1.000000 0.000000 0.000000
vn -0.027410 0.999624 0.000000
vn 0.027410 0.999624 0.000000
vn -0.027410 -0.999624 0.000000
vn 0.027410 -0.999624 0.000000
vn 0.000000 -0.996551 0.082986
vn 0.000000 0.996551 0.082986
vn 0.000000 -0.996551 -0.082986
vn 0.000000 0.996551 -0.082986
vn 0.812720 0.000000 -0.582655
vn 0.812720 0.000000 0.582655
vn -0.812720 0.000000 -0.582655
vn -0.812720 0.000000 0.582655
vn -0.071567 0.996932 0.031710
vn -0.070965 0.988546 0.133196
vn -0.016936 0.999351 0.031787
vn 0.016936 0.999351 0.031787
vn 0.000000 1.000000 0.000000
vn 0.016936 0.999351 -0.031787
vn -0.016936 0.999351 -0.031787
vn -0.070965 0.988546 -0.133196
vn -0.071567 0.996932 -0.031710
vn -1.000000 0.000000 0.000000
vn 0.070965 0.988546 0.133196
vn 0.071567 0.996932 0.031710
vn -0.070965 -0.988546 0.133196
vn 0.000000 0.000000 1.000000
vn -0.071567 -0.996932 -0.031710
vn -0.071567 -0.996932 0.031710
vn 0.000000 0.000000 -1.000000
vn -0.070965 -0.988546 -0.133196
vn 0.071567 0.996932 -0.031710
vn 0.070965 0.988546 -0.133196
vn 0.071567 -0.996932 0.031710
vn 0.070965 -0.988546 0.133196
vn 0.016936 -0.999351 0.031787
vn -0.016936 -0.999351 0.031787
vn 0.000000 -1.000000 0.000000
vn -0.016936 -0.999351 -0.031787
vn 0.016936 -0.999351 -0.031787
vn 0.070965 -0.988546 -0.133196
vn 0.071567 -0.996932 -0.031710
vn 1.000000 0.000000 0.000000
vn -0.033049 0.999454 0.000000
vn 0.033049 0.999454 0.000000
vn -0.033049 -0.999454 0.000000
vn 0.033049 -0.999454 0.000000
vn 0.000000 -0.994996 0.099919
vn 0.000000 0.994996 0.099919
vn 0.000000 -0.994996 -0.099919
vn 0.000000 0.994996 -0.099919
vn 0.812720 0.000000 -0.582655
vn 0.812720 0.000000 0.582655
vn -0.812720 0.000000 -0.582655
vn -0.812720 0.000000 0.582655
vn -0.086185 0.995547 0.038187
vn -0.085139 0.983471 0.159799
vn -0.020417 0.999057 0.038321
vn 0.020417 0.999057 0.038321
vn 0.000000 1.000000 0.000000
vn 0.020417 0.999057 -0.038321
vn -0.020417 0.999057 -0.038321
vn -0.085139 0.983471 -0.159799
vn -0.086185 0.995547 -0.038187
vn -1.000000 0.000000 0.000000
vn 0.085139 0.983471 0.159799
vn 0.086185 0.995547 0.038187
vn -0.085139 -0.983471 0.159799
vn 0.000000 0.000000 1.000000
vn -0.086185 -0.995547 -0.038187
vn -0.086185 -0.995547 0.038187
vn 0.000000 0.000000 -1.000000
vn -0.085139 -0.983471 -0.159799
vn 0.086185 0.995547 -0.038187
vn 0.085139 0.983471 -0.159799
vn 0.086185 -0.995547 0.038187
vn 0.085139 -0.983471 0.159799
vn 0.020417 -0.999057 0.038321
vn -0.020417 -0.999057 0.038321
vn 0.000000 -1.000000 0.000000
vn -0.020417 -0.999057 -0.038321
vn 0.020417 -0.999057 -0.038321
vn 0.085139 -0.983471 -0.159799
vn 0.086185 -0.995547 -0.038187
vn 1.000000 0.000000 0.000000
vn 0.000000 0.000000 -1.000000
vn 0.000000 0.000000 -1.000000
vn 0.866025 0.000000 -0.500000
vn 0.866025 0.000000 -0.500000
vn 0.866025 -0.000000 0.500000
vn 0.866025 -0.000000 0.500000
vn 0.000000 -0.000000 1.000000
vn 0.000000 -0.000000 1.000000
vn -0.866025 0.000000 0.500000
vn -0.866025 0.000000 0.500000
vn -0.866025 0.000000 -0.500000
vn -0.866025 0.000000 -0.500000
vn -0.000000 0.000000 -1.000000
vn -0.000000 0.000000 -1.000000
vn 0.000000 0.000000 1.000000
vn 0.000000 0.000000 1.000000
vn -0.091613 0.861166 0.500000
vn -0.091613 0.861166 0.500000
vn -0.091613 0.861166 -0.500000
vn -0.091613 0.861166 -0.500000
vn -0.000000 0.000000 -1.000000
vn -0.000000 0.000000 -1.000000
vn 0.091613 -0.861166 -0.500000
vn 0.091613 -0.861166 -0.500000
vn 0.091613 -0.861166 0.500000
vn 0.091613 -0.861166 0.500000
vn 0.000000 -0.000000 1.000000
vn 0.000000 -0.000000 1.000000
vn -0.934081 0.000000 0.357060
vn -0.934081 0.000000 0.357060
vn -0.506048 0.859107 0.076485
vn -0.506048 0.859107 0.076485
vn 0.428033 0.859107 -0.280576
vn 0.428033 0.859107 -0.280576
vn 0.934081 0.000000 -0.357060
vn 0.934081 0.000000 -0.357060
vn 0.506048 -0.859107 -0.076485
vn 0.506048 -0.859107 -0.076485
vn -0.428033 -0.859107 0.280576
vn -0.428033 -0.859107 0.280576
vn -0.934081 -0.000000 0.357060
vn -0.934081 -0.000000 0.357060
vn -0.525440 0.000000 -0.850831
vn -0.525440 0.000000 -0.850831
vn -0.171886 0.859420 -0.481511
vn -0.171886 0.859420 -0.481511
vn 0.353554 0.859420 0.369320
vn 0.353554 0.859420 0.369320
vn 0.525440 0.000000 0.850831
vn 0.525440 0.000000 0.850831
vn 0.171886 -0.859420 0.481511
vn 0.171886 -0.859420 0.481511
vn -0.353554 -0.859420 -0.369320
vn -0.353554 -0.859420 -0.369320
vn -0.525440 -0.000000 -0.850831
vn -0.525440 -0.000000 -0.850831
vn 0.525440 0.000000 -0.850831
vn 0.525440 0.000000 -0.850831
vn 0.394992 0.851958 -0.343730
vn 0.394992 0.851958 -0.343730
vn -0.130448 0.851958 0.507101
vn -0.130448 0.851958 0.507101
vn -0.525440 0.000000 0.850831
vn -0.525440 0.000000 0.850831
vn -0.394992 -0.851958 0.343730
vn -0.394992 -0.851958 0.343730
vn 0.130448 -0.851958 -0.507101
vn 0.130448 -0.851958 -0.507101
vn 0.525440 -0.000000 -0.850831
vn 0.525440 -0.000000 -0.850831
vn 0.934081 0.000000 0.357060
vn 0.934081 0.000000 0.357060
vn 0.393438 0.841135 0.371076
vn 0.393438 0.841135 0.371076
vn -0.540643 0.841135 0.014016
vn -0.540643 0.841135 0.014016
vn -0.934081 0.000000 -0.357060
vn -0.934081 0.000000 -0.357060
vn -0.393438 -0.841135 -0.371076
vn -0.393438 -0.841135 -0.371076
vn 0.540643 -0.841135 -0.014016
vn 0.540643 -0.841135 -0.014016
vn 0.934081 -0.000000 0.357060
vn 0.934081 -0.000000 0.357060
f 1/1/1 2/2/2 3/3/3
f 2/2/2 4/4/4 3/3/3
f 3/3/3 4/4/4 5/5/5
f 4/4/4 6/6/6 5/5/5
f 5/5/5 6/6/6 7/7/7
f 6/6/6 8/8/8 7/7/7
f 7/7/7 8/8/8 9/9/9
f 8/8/8 10/10/10 9/9/9
f 9/9/9 10/10/10 11/11/11
f 10/10/10 12/12/12 11/11/11
f 11/11/11 12/12/12 13/13/13
f 12/12/12 14/14/14 13/13/13
f 13/13/13 14/14/14 15/15/15
f 14/14/14 16/16/16 15/15/15
f 15/15/15 16/16/16 17/17/17
f 16/16/16 18/18/18 17/17/17
f 17/17/17 18/18/18 19/19/19
f 18/18/18 20/20/20 19/19/19
f 19/19/19 20/20/20 21/21/21
f 20/20/20 22/22/22 21/21/21
f 23/23/23 35/35/35 37/37/37
f 34/34/34 36/36/36 35/35/35
f 28/28/28 37/37/37 36/36/36
f 35/35/35 36/36/36 37/37/37
f 23/23/23 37/37/37 39/39/39
f 28/28/28 38/38/38 37/37/37
f 24/24/24 39/39/39 38/38/38
f 37/37/37 38/38/38 39/39/39
f 23/23/23 39/39/39 41/41/41
f 24/24/24 40/40/40 39/39/39
f 30/30/30 41/41/41 40/40/40
f 39/39/39 40/40/40 41/41/41
f 23/23/23 41/41/41 43/43/43
f 30/30/30 42/42/42 41/41/41
f 33/33/33 43/43/43 42/42/42
f 41/41/41 42/42/42 43/43/43
f 23/23/23 43/43/43 35/35/35
f 33/33/33 44/44/44 43/43/43
f 34/34/34 35/35/35 44/44/44
f 43/43/43 44/44/44 35/35/35
f 24/24/24 38/38/38 46/46/46
f 28/28/28 45/45/45 38/38/38
f 32/32/32 46/46/46 45/45/45
f 38/38/38 45/45/45 46/46/46
f 28/28/28 36/36/36 48/48/48
f 34/34/34 47/47/47 36/36/36
f 27/27/27 48/48/48 47/47/47
f 36/36/36 47/47/47 48/48/48
f 34/34/34 44/44/44 50/50/50
f 33/33/33 49/49/49 44/44/44
f 25/25/25 50/50/50 49/49/49
f 44/44/44 49/49/49 50/50/50
f 33/33/33 42/42/42 52/52/52
f 30/30/30 51/51/51 42/42/42
f 29/29/29 52/52/52 51/51/51
f 42/42/42 51/51/51 52/52/52
f 30/30/30 40/40/40 54/54/54
f 24/24/24 53/53/53 40/40/40
f 31/31/31 54/54/54 53/53/53
f 40/40/40 53/53/53 54/54/54
f 26/26/26 55/55/55 57/57/57
f 32/32/32 56/56/56 55/55/55
f 27/27/27 57/57/57 56/56/56
f 55/55/55 56/56/56 57/57/57
f 26/26/26 57/57/57 59/59/59
f 27/27/27 58/58/58 57/57/57
f 25/25/25 59/59/59 58/58/58
f 57/57/57 58/58/58 59/59/59
f 26/26/26 59/59/59 61/61/61
f 25/25/25 60/60/60 59/59/59
f 29/29/29 61/61/61 60/60/60
f 59/59/59 60/60/60 61/61/61
f 26/26/26 61/61/61 63/63/63
f 29/29/29 62/62/62 61/61/61
f 31/31/31 63/63/63 62/62/62
f 61/61/61 62/62/62 63/63/63
f 26/26/26 63/63/63 55/55/55
f 31/31/31 64/64/64 63/63/63
f 32/32/32 55/55/55 64/64/64
f 63/63/63 64/64/64 55/55/55
f 27/27/27 56/56/56 48/48/48
f 32/32/32 45/45/45 56/56/56
f 28/28/28 48/48/48 45/45/45
f 56/56/56 45/45/45 48/48/48
f 25/25/25 58/58/58 50/50/50
f 27/27/27 47/47/47 58/58/58
f 34/34/34 50/50/50 47/47/47
f 58/58/58 47/47/47 50/50/50
f 29/29/29 60/60/60 52/52/52
f 25/25/25 49/49/49 60/60/60
f 33/33/33 52/52/52 49/49/49
f 60/60/60 49/49/49 52/52/52
f 31/31/31 62/62/62 54/54/54
f 29/29/29 51/51/51 62/62/62
f 30/30/30 54/54/54 51/51/51
f 62/62/62 51/51/51 54/54/54
f 32/32/32 64/64/64 46/46/46
f 31/31/31 53/53/53 64/64/64
f 24/24/24 46/46/46 53/53/53
f 64/64/64 53/53/53 46/46/46
f 65/65/65 77/77/77 79/79/79
f 76/76/76 78/78/78 77/77/77
f 70/70/70 79/79/79 78/78/78
f 77/77/77 78/78/78 79/79/79
f 65/65/65 79/79/79 81/81/81
f 70/70/70 80/80/80 79/79/79
f 66/66/66 81/81/81 80/80/80
f 79/79/79 80/80/80 81/81/81
f 65/65/65 81/81/81 83/83/83
f 66/66/66 82/82/82 81/81/81
f 72/72/72 83/83/83 82/82/82
f 81/81/81 82/82/82 83/83/83
f 65/65/65 83/83/83 85/85/85
f 72/72/72 84/84/84 83/83/83
f 75/75/75 85/85/85 84/84/84
f 83/83/83 84/84/84 85/85/85
f 65/65/65 85/85/85 77/77/77
f 75/75/75 86/86/86 85/85/85
f 76/76/76 77/77/77 86/86/86
f 85/85/85 86/86/86 77/77/77
f 66/66/66 80/80/80 88/88/88
f 70/70/70 87/87/87 80/80/80
f 74/74/74 88/88/88 87/87/87
f 80/80/80 87/87/87 88/88/88
f 70/70/70 78/78/78 90/90/90
f 76/76/76 89/89/89 78/78/78
f 69/69/69 90/90/90 89/89/89
f 78/78/78 89/89/89 90/90/90
f 76/76/76 86/86/86 92/92/92
f 75/75/75 91/91/91 86/86/86
f 67/67/67 92/92/92 91/91/91
f 86/86/86 91/91/91 92/92/92
f 75/75/75 84/84/84 94/94/94
f 72/72/72 93/93/93 84/84/84
f 71/71/71 94/94/94 93/93/93
f 84/84/84 93/93/93 94/94/94
f 72/72/72 82/82/82 96/96/96
f 66/66/66 95/95/95 82/82/82
f 73/73/73 96/96/96 95/95/95
f 82/82/82 95/95/95 96/96/96
f 68/68/68 97/97/97 99/99/99
f 74/74/74 98/98/98 97/97/97
f 69/69/69 99/99/99 98/98/98
f 97/97/97 98/98/98 99/99/99
f 68/68/68 99/99/99 101/101/101
f 69/69/69 100/100/100 99/99/99
f 67/67/67 101/101/101 100/100/100
f 99/99/99 100/100/100 101/101/101
f 68/68/68 101/101/101 103/103/103
f 67/67/67 102/102/102 101/101/101
f 71/71/71 103/103/103 102/102/102
f 101/101/101 102/102/102 103/103/103
f 68/68/68 103/103/103 105/105/105
f 71/71/71 104/104/104 103/103/103
f 73/73/73 105/105/105 104/104/104
f 103/103/103 104/104/104 105/105/105
f 68/68/68 105/105/105 97/97/97
f 73/73/73 106/106/106 105/105/105
f 74/74/74 97/97/97 106/106/106
f 105/105/105 106/106/106 97/97/97
f 69/69/69 98/98/98 90/90/90
f 74/74/74 87/87/87 98/98/98
f 70/70/70 90/90/90 87/87/87
f 98/98/98 87/87/87 90/90/90
f 67/67/67 100/100/100 92/92/92
f 69/69/69 89/89/89 100/100/100
f 76/76/76 92/92/92 89/89/89
f 100/100/100 89/89/89 92/92/92
f 71/71/71 102/102/102 94/94/94
f 67/67/67 91/91/91 102/102/102
f 75/75/75 94/94/94 91/91/91
f 102/102/102 91/91/91 94/94/94
f 73/73/73 104/104/104 96/96/96
f 71/71/71 93/93/93 104/104/104
f 72/72/72 96/96/96 93/93/93
f 104/104/104 93/93/93 96/96/96
f 74/74/74 106/106/106 88/88/88
f 73/73/73 95/95/95 106/106/106
f 66/66/66 88/88/88 95/95/95
f 106/106/106 95/95/95 88/88/88
f 107/107/107 119/119/119 121/121/121
f 118/118/118 120/120/120 119/119/119
f 112/112/112 121/121/121 120/120/120
f 119/119/119 120/120/120 121/121/121
f 107/107/107 121/121/121 123/123/123
f 112/112/112 122/122/122 121/121/121
f 108/108/108 123/123/123 122/122/122
f 121/121/121 122/122/122 123/123/123
f 107/107/107 123/123/123 125/125/125
f 108/108/108 124/124/124 123/123/123
f 114/114/114 125/125/125 124/124/124
f 123/123/123 124/124/124 125/125/125
f 107/107/107 125/125/125 127/127/127
f 114/114/114 126/126/126 125/125/125
f 117/117/117 127/127/127 126/126/126
f 125/125/125 126/126/126 127/127/127
f 107/107/107 127/127/127 119/119/119
f 117/117/117 128/128/128 127/127/127
f 118/118/118 119/119/119 128/128/128
f 127/127/127 128/128/128 119/119/119
f 108/108/108 122/122/122 130/130/130
f 112/112/112 129/129/129 122/122/122
f 116/116/116 130/130/130 129/129/129
f 122/122/122 129/129/129 130/130/130
f 112/112/112 120/120/120 132/132/132
f 118/118/118 131/131/131 120/120/120
f 111/111/111 132/132/132 131/131/131
f 120/120/120 131/131/131 132/132/132
f 118/118/118 128/128/128 134/134/134
f 117/117/117 133/133/133 128/128/128
f 109/109/109 134/134/134 133/133/133
f 128/128/128 133/133/133 134/134/134
f 117/117/117 126/126/126 136/136/136
f 114/114/114 135/135/135 126/126/126
f 113/113/113 136/136/136 135/135/135
f 126/126/126 135/135/135 136/136/136
f 114/114/114 124/124/124 138/138/138
f 108/108/108 137/137/137 124/124/124
f 115/115/115 138/138/138 137/137/137
f 124/124/124 137/137/137 138/138/138
f 110/110/110 139/139/139 141/141/141
f 116/116/116 140/140/140 139/139/139
f 111/111/111 141/141/141 140/140/140
f 139/139/139 140/140/140 141/141/141
f 110/110/110 141/141/141 143/143/143
f 111/111/111 142/142/142 141/141/141
f 109/109/109 143/143/143 142/142/142
f 141/141/141 142/142/142 143/143/143
f 110/110/110 143/143/143 145/145/145
f 109/109/109 144/144/144 143/143/143
f 113/113/113 145/145/145 144/144/144
f 143/143/143 144/144/144 145/145/145
f 110/110/110 145/145/145 147/147/147
f 113/113/113 146/146/146 145/145/145
f 115/115/115 147/147/147 146/146/146
f 145/145/145 146/146/146 147/147/147
f 110/110/110 147/147/147 139/139/139
f 115/115/115 148/148/148 147/147/147
f 116/116/116 139/139/139 148/148/148
f 147/147/147 148/148/148 139/139/139
f 111/111/111 140/140/140 132/132/132
f 116/116/116 129/129/129 140/140/140
f 112/112/112 132/132/132 129/129/129
f 140/140/140 129/129/129 132/132/132
f 109/109/109 142/142/142 134/134/134
f 111/111/111 131/131/131 142/142/142
f 118/118/118 134/134/134 131/131/131
f 142/142/142 131/131/131 134/134/134
f 113/113/113 144/144/144 136/136/136
f 109/109/109 133/133/133 144/144/144
f 117/117/117 136/136/136 133/133/133
f 144/144/144 133/133/133 136/136/136
f 115/115/115 146/146/146 138/138/138
f 113/113/113 135/135/135 146/146/146
f 114/114/114 138/138/138 135/135/135
f 146/146/146 135/135/135 138/138/138
f 116/116/116 148/148/148 130/130/130
f 115/115/115 137/137/137 148/148/148
f 108/108/108 130/130/130 137/137/137
f 148/148/148 137/137/137 130/130/130
f 149/149/149 161/161/161 163/163/163
f 160/160/160 162/162/162 161/161/161
f 154/154/154 163/163/163 162/162/162
f 161/161/161 162/162/162 163/163/163
f 149/149/149 163/163/163 165/165/165
f 154/154/154 164/164/164 163/163/163
f 150/150/150 165/165/165 164/164/164
f 163/163/163 164/164/164 165/165/165
f 149/149/149 165/165/165 167/167/167
f 150/150/150 166/166/166 165/165/165
f 156/156/156 167/167/167 166/166/166
f 165/165/165 166/166/166 167/167/167
f 149/149/149 167/167/167 169/169/169
f 156/156/156 168/168/168 167/167/167
f 159/159/159 169/169/169 168/168/168
f 167/167/167 168/168/168 169/169/169
f 149/149/149 169/169/169 161/161/161
f 159/159/159 170/170/170 169/169/169
f 160/160/160 161/161/161 170/170/170
f 169/169/169 170/170/170 161/161/161
f 150/150/150 164/164/164 172/172/172
f 154/154/154 171/171/171 164/164/164
f 158/158/158 172/172/172 171/171/171
f 164/164/164 171/171/171 172/172/172
f 154/154/154 162/162/162 174/174/174
f 160/160/160 173/173/173 162/162/162
f 153/153/153 174/174/174 173/173/173
f 162/162/162 173/173/173 174/174/174
f 160/160/160 170/170/170 176/176/176
f 159/159/159 175/175/175 170/170/170
f 151/151/151 176/176/176 175/175/175
f 170/170/170 175/175/175 176/176/176
f 159/159/159 168/168/168 178/178/178
f 156/156/156 177/177/177 168/168/168
f 155/155/155 178/178/178 177/177/177
f 168/168/168 177/177/177 178/178/178
f 156/156/156 166/166/166 180/180/180
f 150/150/150 179/179/179 166/166/166
f 157/157/157 180/180/180 179/179/179
f 166/166/166 179/179/179 180/180/180
f 152/152/152 181/181/181 183/183/183
f 158/158/158 182/182/182 181/181/181
f 153/153/153 183/183/183 182/182/182
f 181/181/181 182/182/182 183/183/183
f 152/152/152 183/183/183 185/185/185
f 153/153/153 184/184/184 183/183/183
f 151/151/151 185/185/185 184/184/184
f 183/183/183 184/184/184 185/185/185
f 152/152/152 185/185/185 187/187/187
f 151/151/151 186/186/186 185/185/185
f 155/155/155 187/187/187 186/186/186
f 185/185/185 186/186/186 187/187/187
f 152/152/152 187/187/187 189/189/189
f 155/155/155 188/188/188 187/187/187
f 157/157/157 189/189/189 188/188/188
f 187/187/187 188/188/188 189/189/189
f 152/152/152 189/189/189 181/181/181
f 157/157/157 190/190/190 189/189/189
f 158/158/158 181/181/181 190/190/190
f 189/189/189 190/190/190 181/181/181
f 153/153/153 182/182/182 174/174/174
f 158/158/158 171/171/171 182/182/182
f 154/154/154 174/174/174 171/171/171
f 182/182/182 171/171/171 174/174/174
f 151/151/151 184/184/184 176/176/176
f 153/153/153 173/173/173 184/184/184
f 160/160/160 176/176/176 173/173/173
f 184/184/184 173/173/173 176/176/176
f 155/155/155 186/186/186 178/178/178
f 151/151/151 175/175/175 186/186/186
f 159/159/159 178/178/178 175/175/175
f 186/186/186 175/175/175 178/178/178
f 157/157/157 188/188/188 180/180/180
f 155/155/155 177/177/177 188/188/188
f 156/156/156 180/180/180 177/177/177
f 188/188/188 177/177/177 180/180/180
f 158/158/158 190/190/190 172/172/172
f 157/157/157 179/179/179 190/190/190
f 150/150/150 172/172/172 179/179/179
f 190/190/190 179/179/179 172/172/172
f 191/191/191 203/203/203 205/205/205
f 202/202/202 204/204/204 203/203/203
f 196/196/196 205/205/205 204/204/204
f 203/203/203 204/204/204 205/205/205
f 191/191/191 205/205/205 207/207/207
f 196/196/196 206/206/206 205/205/205
f 192/192/192 207/207/207 206/206/206
f 205/205/205 206/206/206 207/207/207
f 191/191/191 207/207/207 209/209/209
f 192/192/192 208/208/208 207/207/207
f 198/198/198 209/209/209 208/208/208
f 207/207/207 208/208/208 209/209/209
f 191/191/191 209/209/209 211/211/211
f 198/198/198 210/210/210 209/209/209
f 201/201/201 211/211/211 210/210/210
f 209/209/209 210/210/210 211/211/211
f 191/191/191 211/211/211 203/203/203
f 201/201/201 212/212/212 211/211/211
f 202/202/202 203/203/203 212/212/212
f 211/211/211 212/212/212 203/203/203
f 192/192/192 206/206/206 214/214/214
f 196/196/196 213/213/213 206/206/206
f 200/200/200 214/214/214 213/213/213
f 206/206/206 213/213/213 214/214/214
f 196/196/196 204/204/204 216/216/216
f 202/202/202 215/215/215 204/204/204
f 195/195/195 216/216/216 215/215/215
f 204/204/204 215/215/215 216/216/216
f 202/202/202 212/212/212 218/218/218
f 201/201/201 217/217/217 212/212/212
f 193/193/193 218/218/218 217/217/217
f 212/212/212 217/217/217 218/218/218
f 201/201/201 210/210/210 220/220/220
f 198/198/198 219/219/219 210/210/210
f 197/197/197 220/220/220 219/219/219
f 210/210/210 219/219/219 220/220/220
f 198/198/198 208/208/208 222/222/222
f 192/192/192 221/221/221 208/208/208
f 199/199/199 222/222/222 221/221/221
f 208/208/208 221/221/221 222/222/222
f 194/194/194 223/223/223 225/225/225
f 200/200/200 224/224/224 223/223/223
f 195/195/195 225/225/225 224/224/224
f 223/223/223 224/224/224 225/225/225
f 194/194/194 225/225/225 227/227/227
f 195/195/195 226/226/226 225/225/225
f 193/193/193 227/227/227 226/226/226
f 225/225/225 226/226/226 227/227/227
f 194/194/194 227/227/227 229/229/229
f 193/193/193 228/228/228 227/227/227
f 197/197/197 229/229/229 228/228/228
f 227/227/227 228/228/228 229/229/229
f 194/194/194 229/229/229 231/231/231
f 197/197/197 230/230/230 229/229/229
f 199/199/199 231/231/231 230/230/230
f 229/229/229 230/230/230 231/231/231
f 194/194/194 231/231/231 223/223/223
f 199/199/199 232/232/232 231/231/231
f 200/200/200 223/223/223 232/232/232
f 231/231/231 232/232/232 223/223/223
f 195/195/195 224/224/224 216/216/216
f 200/200/200 213/213/213 224/224/224
f 196/196/196 216/216/216 213/213/213
f 224/224/224 213/213/213 216/216/216
f 193/193/193 226/226/226 218/218/218
f 195/195/195 215/215/215 226/226/226
f 202/202/202 218/218/218 215/215/215
f 226/226/226 215/215/215 218/218/218
f 197/197/197 228/228/228 220/220/220
f 193/193/193 217/217/217 228/228/228
f 201/201/201 220/220/220 217/217/217
f 228/228/228 217/217/217 220/220/220
f 199/199/199 230/230/230 222/222/222
f 197/197/197 219/219/219 230/230/230
f 198/198/198 222/222/222 219/219/219
f 230/230/230 219/219/219 222/222/222
f 200/200/200 232/232/232 214/214/214
f 199/199/199 221/221/221 232/232/232
f 192/192/192 214/214/214 221/221/221
f 232/232/232 221/221/221 214/214/214
f 233/233/233 245/245/245 247/247/247
f 244/244/244 246/246/246 245/245/245
f 238/238/238 247/247/247 246/246/246
f 245/245/245 246/246/246 247/247/247
f 233/233/233 247/247/247 249/249/249
f 238/238/238 248/248/248 247/247/247
f 234/234/234 249/249/249 248/248/248
f 247/247/247 248/248/248 249/249/249
f 233/233/233 249/249/249 251/251/251
f 234/234/234 250/250/250 249/249/249
f 240/240/240 251/251/251 250/250/250
f 249/249/249 250/250/250 251/251/251
f 233/233/233 251/251/251 253/253/253
f 240/240/240 252/252/252 251/251/251
f 243/243/243 253/253/253 252/252/252
f 251/251/251 252/252/252 253/253/253
f 233/233/233 253/253/253 245/245/245
f 243/243/243 254/254/254 253/253/253
f 244/244/244 245/245/245 254/254/254
f 253/253/253 254/254/254 245/245/245
f 234/234/234 248/248/248 256/256/256
f 238/238/238 255/255/255 248/248/248
f 242/242/242 256/256/256 255/255/255
f 248/248/248 255/255/255 256/256/256
f 238/238/238 246/246/246 258/258/258
f 244/244/244 257/257/257 246/246/246
f 237/237/237 258/258/258 257/257/257
f 246/246/246 257/257/257 258/258/258
f 244/244/244 254/254/254 260/260/260
f 243/243/243 259/259/259 254/254/254
f 235/235/235 260/260/260 259/259/259
f 254/254/254 259/259/259 260/260/260
f 243/243/243 252/252/252 262/262/262
f 240/240/240 261/261/261 252/252/252
f 239/239/239 262/262/262 261/261/261
f 252/252/252 261/261/261 262/262/262
f 240/240/240 250/250/250 264/264/264
f 234/234/234 263/263/263 250/250/250
f 241/241/241 264/264/264 263/263/263
f 250/250/250 263/263/263 264/264/264
f 236/236/236 265/265/265 267/267/267
f 242/242/242 266/266/266 265/265/265
f 237/237/237 267/267/267 266/266/266
f 265/265/265 266/266/266 267/267/267
f 236/236/236 267/267/267 269/269/269
f 237/237/237 268/268/268 267/267/267
f 235/235/235 269/269/269 268/268/268
f 267/267/267 268/268/268 269/269/269
f 236/236/236 269/269/269 271/271/271
f 235/235/235 270/270/270 269/269/269
f 239/239/239 271/271/271 270/270/270
f 269/269/269 270/270/270 271/271/271
f 236/236/236 271/271/271 273/273/273
f 239/239/239 272/272/272 271/271/271
f 241/241/241 273/273/273 272/272/272
f 271/271/271 272/272/272 273/273/273
f 236/236/236 273/273/273 265/265/265
f 241/241/241 274/274/274 273/273/273
f 242/242/242 265/265/265 274/274/274
f 273/273/273 274/274/274 265/265/265
f 237/237/237 266/266/266 258/258/258
f 242/242/242 255/255/255 266/266/266
f 238/238/238 258/258/258 255/255/255
f 266/266/266 255/255/255 258/258/258
f 235/235/235 268/268/268 260/260/260
f 237/237/237 257/257/257 268/268/268
f 244/244/244 260/260/260 257/257/257
f 268/268/268 257/257/257 260/260/260
f 239/239/239 270/270/270 262/262/262
f 235/235/235 259/259/259 270/270/270
f 243/243/243 262/262/262 259/259/259
f 270/270/270 259/259/259 262/262/262
f 241/241/241 272/272/272 264/264/264
f 239/239/239 261/261/261 272/272/272
f 240/240/240 264/264/264 261/261/261
f 272/272/272 261/261/261 264/264/264
f 242/242/242 274/274/274 256/256/256
f 241/241/241 263/263/263 274/274/274
f 234/234/234 256/256/256 263/263/263
f 274/274/274 263/263/263 256/256/256
f 275/275/275 276/276/276 277/277/277
f 276/276/276 278/278/278 277/277/277
f 277/277/277 278/278/278 279/279/279
f 278/278/278 280/280/280 279/279/279
f 279/279/279 280/280/280 281/281/281
f 280/280/280 282/282/282 281/281/281
f 281/281/281 282/282/282 283/283/283
f 282/282/282 284/284/284 283/283/283
f 283/283/283 284/284/284 285/285/285
f 284/284/284 286/286/286 285/285/285
f 285/285/285 286/286/286 287/287/287
f 286/286/286 288/288/288 287/287/287
f 289/289/289 290/290/290 291/291/291
f 290/290/290 292/292/292 291/291/291
f 291/291/291 292/292/292 293/293/293
f 292/292/292 294/294/294 293/293/293
f 293/293/293 294/294/294 295/295/295
f 294/294/294 296/296/296 295/295/295
f 295/295/295 296/296/296 297/297/297
f 296/296/296 298/298/298 297/297/297
f 297/297/297 298/298/298 299/299/299
f 298/298/298 300/300/300 299/299/299
f 299/299/299 300/300/300 301/301/301
f 300/300/300 302/302/302 301/301/301
f 303/303/303 304/304/304 305/305/305
f 304/304/304 306/306/306 305/305/305
f 305/305/305 306/306/306 307/307/307
f 306/306/306 308/308/308 307/307/307
f 307/307/307 308/308/308 309/309/309
f 308/308/308 310/310/310 309/309/309
f 309/309/309 310/310/310 311/311/311
f 310/310/310 312/312/312 311/311/311
f 311/311/311 312/312/312 313/313/313
f 312/312/312 314/314/314 313/313/313
f 313/313/313 314/314/314 315/315/315
f 314/314/314 316/316/316 315/315/315
f 317/317/317 318/318/318 319/319/319
f 318/318/318 320/320/320 319/319/319
f 319/319/319 320/320/320 321/321/321
f 320/320/320 322/322/322 321/321/321
f 321/321/321 322/322/322 323/323/323
f 322/322/322 324/324/324 323/323/323
f 323/323/323 324/324/324 325/325/325
f 324/324/324 326/326/326 325/325/325
f 325/325/325 326/326/326 327/327/327
f 326/326/326 328/328/328 327/327/327
f 327/327/327 328/328/328 329/329/329
f 328/328/328 330/330/330 329/329/329
f 331/331/331 332/332/332 333/333/333
f 332/332/332 334/334/334 333/333/333
f 333/333/333 334/334/334 335/335/335
f 334/334/334 336/336/336 335/335/335
f 335/335/335 336/336/336 337/337/337
f 336/336/336 338/338/338 337/337/337
f 337/337/337 338/338/338 339/339/339
f 338/338/338 340/340/340 339/339/339
f 339/339/339 340/340/340 341/341/341
f 340/340/340 342/342/342 341/341/341
f 341/341/341 342/342/342 343/343/343
f 342/342/342 344/344/344 343/343/343
f 345/345/345 346/346/346 347/347/347
f 346/346/346 348/348/348 347/347/347
f 347/347/347 348/348/348 349/349/349
f 348/348/348 350/350/350 349/349/349
f 349/349/349 350/350/350 351/351/351
f 350/350/350 352/352/352 351/351/351
f 351/351/351 352/352/352 353/353/353
f 352/352/352 354/354/354 353/353/353
f 353/353/353 354/354/354 355/355/355
f 354/354/354 356/356/356 355/355/355
f 355/355/355 356/356/356 357/357/357
f 356/356/356 358/358/358 357/357/357
