# Procedurally generated tundra/steppe conifer (fir/spruce) tree
# Format note: vt.x carries a custom 'heightT' material-blend scalar,
# not a real texture coordinate (see ObjTreeMeshLoader.java).
v 0.100000 0.000000 0.000000
v 0.085000 0.080000 0.000000
v 0.070711 0.000000 0.070711
v 0.060104 0.080000 0.060104
v 0.000000 0.000000 0.100000
v 0.000000 0.080000 0.085000
v -0.070711 0.000000 0.070711
v -0.060104 0.080000 0.060104
v -0.100000 0.000000 0.000000
v -0.085000 0.080000 0.000000
v -0.070711 0.000000 -0.070711
v -0.060104 0.080000 -0.060104
v -0.000000 0.000000 -0.100000
v -0.000000 0.080000 -0.085000
v 0.070711 0.000000 -0.070711
v 0.060104 0.080000 -0.060104
v 0.100000 0.000000 -0.000000
v 0.085000 0.080000 -0.000000
v 0.000000 0.080000 -0.085000
v 0.000000 0.100000 -0.620000
v 0.049962 0.080000 -0.068766
v 0.364427 0.100000 -0.501591
v 0.080840 0.080000 -0.026266
v 0.589655 0.100000 -0.191591
v 0.080840 0.080000 0.026266
v 0.589655 0.100000 0.191591
v 0.049962 0.080000 0.068766
v 0.364427 0.100000 0.501591
v 0.000000 0.080000 0.085000
v 0.000000 0.100000 0.620000
v -0.049962 0.080000 0.068766
v -0.364427 0.100000 0.501591
v -0.080840 0.080000 0.026266
v -0.589655 0.100000 0.191591
v -0.080840 0.080000 -0.026266
v -0.589655 0.100000 -0.191591
v -0.049962 0.080000 -0.068766
v -0.364427 0.100000 -0.501591
v -0.000000 0.080000 -0.085000
v -0.000000 0.100000 -0.620000
v 0.000000 0.100000 -0.620000
v 0.000000 0.240000 -0.580000
v 0.364427 0.100000 -0.501591
v 0.340915 0.240000 -0.469230
v 0.589655 0.100000 -0.191591
v 0.551613 0.240000 -0.179230
v 0.589655 0.100000 0.191591
v 0.551613 0.240000 0.179230
v 0.364427 0.100000 0.501591
v 0.340915 0.240000 0.469230
v 0.000000 0.100000 0.620000
v 0.000000 0.240000 0.580000
v -0.364427 0.100000 0.501591
v -0.340915 0.240000 0.469230
v -0.589655 0.100000 0.191591
v -0.551613 0.240000 0.179230
v -0.589655 0.100000 -0.191591
v -0.551613 0.240000 -0.179230
v -0.364427 0.100000 -0.501591
v -0.340915 0.240000 -0.469230
v -0.000000 0.100000 -0.620000
v -0.000000 0.240000 -0.580000
v 0.000000 0.240000 -0.580000
v 0.000000 0.400000 -0.460000
v 0.340915 0.240000 -0.469230
v 0.270381 0.400000 -0.372148
v 0.551613 0.240000 -0.179230
v 0.437486 0.400000 -0.142148
v 0.551613 0.240000 0.179230
v 0.437486 0.400000 0.142148
v 0.340915 0.240000 0.469230
v 0.270381 0.400000 0.372148
v 0.000000 0.240000 0.580000
v 0.000000 0.400000 0.460000
v -0.340915 0.240000 0.469230
v -0.270381 0.400000 0.372148
v -0.551613 0.240000 0.179230
v -0.437486 0.400000 0.142148
v -0.551613 0.240000 -0.179230
v -0.437486 0.400000 -0.142148
v -0.340915 0.240000 -0.469230
v -0.270381 0.400000 -0.372148
v -0.000000 0.240000 -0.580000
v -0.000000 0.400000 -0.460000
v 0.000000 0.400000 -0.460000
v 0.000000 0.550000 -0.360000
v 0.270381 0.400000 -0.372148
v 0.211603 0.550000 -0.291246
v 0.437486 0.400000 -0.142148
v 0.342380 0.550000 -0.111246
v 0.437486 0.400000 0.142148
v 0.342380 0.550000 0.111246
v 0.270381 0.400000 0.372148
v 0.211603 0.550000 0.291246
v 0.000000 0.400000 0.460000
v 0.000000 0.550000 0.360000
v -0.270381 0.400000 0.372148
v -0.211603 0.550000 0.291246
v -0.437486 0.400000 0.142148
v -0.342380 0.550000 0.111246
v -0.437486 0.400000 -0.142148
v -0.342380 0.550000 -0.111246
v -0.270381 0.400000 -0.372148
v -0.211603 0.550000 -0.291246
v -0.000000 0.400000 -0.460000
v -0.000000 0.550000 -0.360000
v 0.000000 0.550000 -0.360000
v 0.000000 0.680000 -0.270000
v 0.211603 0.550000 -0.291246
v 0.158702 0.680000 -0.218435
v 0.342380 0.550000 -0.111246
v 0.256785 0.680000 -0.083435
v 0.342380 0.550000 0.111246
v 0.256785 0.680000 0.083435
v 0.211603 0.550000 0.291246
v 0.158702 0.680000 0.218435
v 0.000000 0.550000 0.360000
v 0.000000 0.680000 0.270000
v -0.211603 0.550000 0.291246
v -0.158702 0.680000 0.218435
v -0.342380 0.550000 0.111246
v -0.256785 0.680000 0.083435
v -0.342380 0.550000 -0.111246
v -0.256785 0.680000 -0.083435
v -0.211603 0.550000 -0.291246
v -0.158702 0.680000 -0.218435
v -0.000000 0.550000 -0.360000
v -0.000000 0.680000 -0.270000
v 0.000000 0.680000 -0.270000
v 0.000000 0.800000 -0.190000
v 0.158702 0.680000 -0.218435
v 0.111679 0.800000 -0.153713
v 0.256785 0.680000 -0.083435
v 0.180701 0.800000 -0.058713
v 0.256785 0.680000 0.083435
v 0.180701 0.800000 0.058713
v 0.158702 0.680000 0.218435
v 0.111679 0.800000 0.153713
v 0.000000 0.680000 0.270000
v 0.000000 0.800000 0.190000
v -0.158702 0.680000 0.218435
v -0.111679 0.800000 0.153713
v -0.256785 0.680000 0.083435
v -0.180701 0.800000 0.058713
v -0.256785 0.680000 -0.083435
v -0.180701 0.800000 -0.058713
v -0.158702 0.680000 -0.218435
v -0.111679 0.800000 -0.153713
v -0.000000 0.680000 -0.270000
v -0.000000 0.800000 -0.190000
v 0.000000 0.800000 -0.190000
v 0.000000 0.910000 -0.100000
v 0.111679 0.800000 -0.153713
v 0.058779 0.910000 -0.080902
v 0.180701 0.800000 -0.058713
v 0.095106 0.910000 -0.030902
v 0.180701 0.800000 0.058713
v 0.095106 0.910000 0.030902
v 0.111679 0.800000 0.153713
v 0.058779 0.910000 0.080902
v 0.000000 0.800000 0.190000
v 0.000000 0.910000 0.100000
v -0.111679 0.800000 0.153713
v -0.058779 0.910000 0.080902
v -0.180701 0.800000 0.058713
v -0.095106 0.910000 0.030902
v -0.180701 0.800000 -0.058713
v -0.095106 0.910000 -0.030902
v -0.111679 0.800000 -0.153713
v -0.058779 0.910000 -0.080902
v -0.000000 0.800000 -0.190000
v -0.000000 0.910000 -0.100000
v 0.000000 0.910000 -0.100000
v 0.000000 1.000000 0.000000
v 0.058779 0.910000 -0.080902
v 0.000000 1.000000 0.000000
v 0.095106 0.910000 -0.030902
v 0.000000 1.000000 0.000000
v 0.095106 0.910000 0.030902
v 0.000000 1.000000 0.000000
v 0.058779 0.910000 0.080902
v 0.000000 1.000000 0.000000
v 0.000000 0.910000 0.100000
v 0.000000 1.000000 0.000000
v -0.058779 0.910000 0.080902
v 0.000000 1.000000 0.000000
v -0.095106 0.910000 0.030902
v 0.000000 1.000000 0.000000
v -0.095106 0.910000 -0.030902
v 0.000000 1.000000 0.000000
v -0.058779 0.910000 -0.080902
v 0.000000 1.000000 0.000000
v -0.000000 0.910000 -0.100000
v 0.000000 1.000000 0.000000
vt 0.000000 0.0
vt 0.080000 0.0
vt 0.000000 0.0
vt 0.080000 0.0
vt 0.000000 0.0
vt 0.080000 0.0
vt 0.000000 0.0
vt 0.080000 0.0
vt 0.000000 0.0
vt 0.080000 0.0
vt 0.000000 0.0
vt 0.080000 0.0
vt 0.000000 0.0
vt 0.080000 0.0
vt 0.000000 0.0
vt 0.080000 0.0
vt 0.000000 0.0
vt 0.080000 0.0
vt 0.880000 0.0
vt 0.880000 0.0
vt 0.880000 0.0
vt 0.880000 0.0
vt 0.880000 0.0
vt 0.880000 0.0
vt 0.880000 0.0
vt 0.880000 0.0
vt 0.880000 0.0
vt 0.880000 0.0
vt 0.880000 0.0
vt 0.880000 0.0
vt 0.880000 0.0
vt 0.880000 0.0
vt 0.880000 0.0
vt 0.880000 0.0
vt 0.880000 0.0
vt 0.880000 0.0
vt 0.880000 0.0
vt 0.880000 0.0
vt 0.880000 0.0
vt 0.880000 0.0
vt 0.880000 0.0
vt 0.880000 0.0
vt 0.880000 0.0
vt 0.880000 0.0
vt 0.880000 0.0
vt 0.880000 0.0
vt 0.880000 0.0
vt 0.880000 0.0
vt 0.880000 0.0
vt 0.880000 0.0
vt 0.880000 0.0
vt 0.880000 0.0
vt 0.880000 0.0
vt 0.880000 0.0
vt 0.880000 0.0
vt 0.880000 0.0
vt 0.880000 0.0
vt 0.880000 0.0
vt 0.880000 0.0
vt 0.880000 0.0
vt 0.880000 0.0
vt 0.880000 0.0
vt 0.880000 0.0
vt 0.880000 0.0
vt 0.880000 0.0
vt 0.880000 0.0
vt 0.880000 0.0
vt 0.880000 0.0
vt 0.880000 0.0
vt 0.880000 0.0
vt 0.880000 0.0
vt 0.880000 0.0
vt 0.880000 0.0
vt 0.880000 0.0
vt 0.880000 0.0
vt 0.880000 0.0
vt 0.880000 0.0
vt 0.880000 0.0
vt 0.880000 0.0
vt 0.880000 0.0
vt 0.880000 0.0
vt 0.880000 0.0
vt 0.880000 0.0
vt 0.880000 0.0
vt 0.880000 0.0
vt 0.880000 0.0
vt 0.880000 0.0
vt 0.880000 0.0
vt 0.880000 0.0
vt 0.880000 0.0
vt 0.880000 0.0
vt 0.880000 0.0
vt 0.880000 0.0
vt 0.880000 0.0
vt 0.880000 0.0
vt 0.880000 0.0
vt 0.880000 0.0
vt 0.880000 0.0
vt 0.880000 0.0
vt 0.880000 0.0
vt 0.880000 0.0
vt 0.880000 0.0
vt 0.880000 0.0
vt 0.880000 0.0
vt 0.880000 0.0
vt 0.880000 0.0
vt 0.880000 0.0
vt 0.880000 0.0
vt 0.880000 0.0
vt 0.880000 0.0
vt 0.880000 0.0
vt 0.880000 0.0
vt 0.880000 0.0
vt 0.880000 0.0
vt 0.880000 0.0
vt 0.880000 0.0
vt 0.880000 0.0
vt 0.880000 0.0
vt 0.880000 0.0
vt 0.880000 0.0
vt 0.880000 0.0
vt 0.880000 0.0
vt 0.880000 0.0
vt 0.880000 0.0
vt 0.880000 0.0
vt 0.880000 0.0
vt 0.880000 0.0
vt 0.880000 0.0
vt 0.880000 0.0
vt 0.880000 0.0
vt 0.880000 0.0
vt 0.880000 0.0
vt 0.880000 0.0
vt 0.880000 0.0
vt 0.880000 0.0
vt 0.880000 0.0
vt 0.880000 0.0
vt 0.880000 0.0
vt 0.880000 0.0
vt 0.880000 0.0
vt 0.880000 0.0
vt 0.880000 0.0
vt 0.880000 0.0
vt 0.880000 0.0
vt 0.880000 0.0
vt 0.880000 0.0
vt 0.880000 0.0
vt 0.880000 0.0
vt 0.880000 0.0
vt 0.880000 0.0
vt 0.880000 0.0
vt 0.880000 0.0
vt 0.880000 0.0
vt 0.880000 0.0
vt 0.880000 0.0
vt 0.880000 0.0
vt 0.880000 0.0
vt 0.880000 0.0
vt 0.880000 0.0
vt 0.880000 0.0
vt 0.880000 0.0
vt 0.880000 0.0
vt 0.880000 0.0
vt 0.880000 0.0
vt 0.880000 0.0
vt 0.880000 0.0
vt 0.880000 0.0
vt 0.880000 0.0
vt 0.880000 0.0
vt 0.880000 0.0
vt 0.880000 0.0
vt 0.880000 0.0
vt 0.880000 0.0
vt 0.880000 0.0
vt 0.880000 0.0
vt 0.880000 0.0
vt 0.880000 0.0
vt 0.880000 0.0
vt 0.880000 0.0
vt 0.880000 0.0
vt 0.880000 0.0
vt 0.880000 0.0
vt 0.880000 0.0
vt 0.880000 0.0
vt 0.880000 0.0
vt 0.880000 0.0
vt 0.880000 0.0
vt 0.880000 0.0
vt 0.880000 0.0
vt 0.880000 0.0
vt 0.880000 0.0
vt 0.880000 0.0
vt 0.880000 0.0
vt 0.880000 0.0
vn 1.000000 0.000000 0.000000
vn 1.000000 0.000000 0.000000
vn 0.707107 0.000000 0.707107
vn 0.707107 0.000000 0.707107
vn 0.000000 0.000000 1.000000
vn 0.000000 0.000000 1.000000
vn -0.707107 0.000000 0.707107
vn -0.707107 0.000000 0.707107
vn -1.000000 0.000000 0.000000
vn -1.000000 0.000000 0.000000
vn -0.707107 0.000000 -0.707107
vn -0.707107 0.000000 -0.707107
vn -0.000000 0.000000 -1.000000
vn -0.000000 0.000000 -1.000000
vn 0.707107 0.000000 -0.707107
vn 0.707107 0.000000 -0.707107
vn 1.000000 0.000000 -0.000000
vn 1.000000 0.000000 -0.000000
vn 0.000000 0.000000 -1.000000
vn 0.000000 0.000000 -1.000000
vn 0.587785 0.000000 -0.809017
vn 0.587785 0.000000 -0.809017
vn 0.951057 0.000000 -0.309017
vn 0.951057 0.000000 -0.309017
vn 0.951057 -0.000000 0.309017
vn 0.951057 -0.000000 0.309017
vn 0.587785 -0.000000 0.809017
vn 0.587785 -0.000000 0.809017
vn 0.000000 -0.000000 1.000000
vn 0.000000 -0.000000 1.000000
vn -0.587785 0.000000 0.809017
vn -0.587785 0.000000 0.809017
vn -0.951057 0.000000 0.309017
vn -0.951057 0.000000 0.309017
vn -0.951057 0.000000 -0.309017
vn -0.951057 0.000000 -0.309017
vn -0.587785 0.000000 -0.809017
vn -0.587785 0.000000 -0.809017
vn -0.000000 0.000000 -1.000000
vn -0.000000 0.000000 -1.000000
vn 0.000000 0.000000 -1.000000
vn 0.000000 0.000000 -1.000000
vn 0.587785 0.000000 -0.809017
vn 0.587785 0.000000 -0.809017
vn 0.951057 0.000000 -0.309017
vn 0.951057 0.000000 -0.309017
vn 0.951057 -0.000000 0.309017
vn 0.951057 -0.000000 0.309017
vn 0.587785 -0.000000 0.809017
vn 0.587785 -0.000000 0.809017
vn 0.000000 -0.000000 1.000000
vn 0.000000 -0.000000 1.000000
vn -0.587785 0.000000 0.809017
vn -0.587785 0.000000 0.809017
vn -0.951057 0.000000 0.309017
vn -0.951057 0.000000 0.309017
vn -0.951057 0.000000 -0.309017
vn -0.951057 0.000000 -0.309017
vn -0.587785 0.000000 -0.809017
vn -0.587785 0.000000 -0.809017
vn -0.000000 0.000000 -1.000000
vn -0.000000 0.000000 -1.000000
vn 0.000000 0.000000 -1.000000
vn 0.000000 0.000000 -1.000000
vn 0.587785 0.000000 -0.809017
vn 0.587785 0.000000 -0.809017
vn 0.951057 0.000000 -0.309017
vn 0.951057 0.000000 -0.309017
vn 0.951057 -0.000000 0.309017
vn 0.951057 -0.000000 0.309017
vn 0.587785 -0.000000 0.809017
vn 0.587785 -0.000000 0.809017
vn 0.000000 -0.000000 1.000000
vn 0.000000 -0.000000 1.000000
vn -0.587785 0.000000 0.809017
vn -0.587785 0.000000 0.809017
vn -0.951057 0.000000 0.309017
vn -0.951057 0.000000 0.309017
vn -0.951057 0.000000 -0.309017
vn -0.951057 0.000000 -0.309017
vn -0.587785 0.000000 -0.809017
vn -0.587785 0.000000 -0.809017
vn -0.000000 0.000000 -1.000000
vn -0.000000 0.000000 -1.000000
vn 0.000000 0.000000 -1.000000
vn 0.000000 0.000000 -1.000000
vn 0.587785 0.000000 -0.809017
vn 0.587785 0.000000 -0.809017
vn 0.951057 0.000000 -0.309017
vn 0.951057 0.000000 -0.309017
vn 0.951057 -0.000000 0.309017
vn 0.951057 -0.000000 0.309017
vn 0.587785 -0.000000 0.809017
vn 0.587785 -0.000000 0.809017
vn 0.000000 -0.000000 1.000000
vn 0.000000 -0.000000 1.000000
vn -0.587785 0.000000 0.809017
vn -0.587785 0.000000 0.809017
vn -0.951057 0.000000 0.309017
vn -0.951057 0.000000 0.309017
vn -0.951057 0.000000 -0.309017
vn -0.951057 0.000000 -0.309017
vn -0.587785 0.000000 -0.809017
vn -0.587785 0.000000 -0.809017
vn -0.000000 0.000000 -1.000000
vn -0.000000 0.000000 -1.000000
vn 0.000000 0.000000 -1.000000
vn 0.000000 0.000000 -1.000000
vn 0.587785 0.000000 -0.809017
vn 0.587785 0.000000 -0.809017
vn 0.951057 0.000000 -0.309017
vn 0.951057 0.000000 -0.309017
vn 0.951057 -0.000000 0.309017
vn 0.951057 -0.000000 0.309017
vn 0.587785 -0.000000 0.809017
vn 0.587785 -0.000000 0.809017
vn 0.000000 -0.000000 1.000000
vn 0.000000 -0.000000 1.000000
vn -0.587785 0.000000 0.809017
vn -0.587785 0.000000 0.809017
vn -0.951057 0.000000 0.309017
vn -0.951057 0.000000 0.309017
vn -0.951057 0.000000 -0.309017
vn -0.951057 0.000000 -0.309017
vn -0.587785 0.000000 -0.809017
vn -0.587785 0.000000 -0.809017
vn -0.000000 0.000000 -1.000000
vn -0.000000 0.000000 -1.000000
vn 0.000000 0.000000 -1.000000
vn 0.000000 0.000000 -1.000000
vn 0.587785 0.000000 -0.809017
vn 0.587785 0.000000 -0.809017
vn 0.951057 0.000000 -0.309017
vn 0.951057 0.000000 -0.309017
vn 0.951057 -0.000000 0.309017
vn 0.951057 -0.000000 0.309017
vn 0.587785 -0.000000 0.809017
vn 0.587785 -0.000000 0.809017
vn 0.000000 -0.000000 1.000000
vn 0.000000 -0.000000 1.000000
vn -0.587785 0.000000 0.809017
vn -0.587785 0.000000 0.809017
vn -0.951057 0.000000 0.309017
vn -0.951057 0.000000 0.309017
vn -0.951057 0.000000 -0.309017
vn -0.951057 0.000000 -0.309017
vn -0.587785 0.000000 -0.809017
vn -0.587785 0.000000 -0.809017
vn -0.000000 0.000000 -1.000000
vn -0.000000 0.000000 -1.000000
vn 0.000000 0.000000 -1.000000
vn 0.000000 0.000000 -1.000000
vn 0.587785 0.000000 -0.809017
vn 0.587785 0.000000 -0.809017
vn 0.951057 0.000000 -0.309017
vn 0.951057 0.000000 -0.309017
vn 0.951057 -0.000000 0.309017
vn 0.951057 -0.000000 0.309017
vn 0.587785 -0.000000 0.809017
vn 0.587785 -0.000000 0.809017
vn 0.000000 -0.000000 1.000000
vn 0.000000 -0.000000 1.000000
vn -0.587785 0.000000 0.809017
vn -0.587785 0.000000 0.809017
vn -0.951057 0.000000 0.309017
vn -0.951057 0.000000 0.309017
vn -0.951057 0.000000 -0.309017
vn -0.951057 0.000000 -0.309017
vn -0.587785 0.000000 -0.809017
vn -0.587785 0.000000 -0.809017
vn -0.000000 0.000000 -1.000000
vn -0.000000 0.000000 -1.000000
vn 0.000000 0.000000 -1.000000
vn 0.000000 0.000000 -1.000000
vn 0.587785 0.000000 -0.809017
vn 0.587785 0.000000 -0.809017
vn 0.951057 0.000000 -0.309017
vn 0.951057 0.000000 -0.309017
vn 0.951057 -0.000000 0.309017
vn 0.951057 -0.000000 0.309017
vn 0.587785 -0.000000 0.809017
vn 0.587785 -0.000000 0.809017
vn 0.000000 -0.000000 1.000000
vn 0.000000 -0.000000 1.000000
vn -0.587785 0.000000 0.809017
vn -0.587785 0.000000 0.809017
vn -0.951057 0.000000 0.309017
vn -0.951057 0.000000 0.309017
vn -0.951057 0.000000 -0.309017
vn -0.951057 0.000000 -0.309017
vn -0.587785 0.000000 -0.809017
vn -0.587785 0.000000 -0.809017
vn -0.000000 0.000000 -1.000000
vn -0.000000 0.000000 -1.000000
f 1/1/1 2/2/2 3/3/3
f 2/2/2 4/4/4 3/3/3
f 3/3/3 4/4/4 5/5/5
f 4/4/4 6/6/6 5/5/5
f 5/5/5 6/6/6 7/7/7
f 6/6/6 8/8/8 7/7/7
f 7/7/7 8/8/8 9/9/9
f 8/8/8 10/10/10 9/9/9
f 9/9/9 10/10/10 11/11/11
f 10/10/10 12/12/12 11/11/11
f 11/11/11 12/12/12 13/13/13
f 12/12/12 14/14/14 13/13/13
f 13/13/13 14/14/14 15/15/15
f 14/14/14 16/16/16 15/15/15
f 15/15/15 16/16/16 17/17/17
f 16/16/16 18/18/18 17/17/17
f 19/19/19 20/20/20 21/21/21
f 20/20/20 22/22/22 21/21/21
f 21/21/21 22/22/22 23/23/23
f 22/22/22 24/24/24 23/23/23
f 23/23/23 24/24/24 25/25/25
f 24/24/24 26/26/26 25/25/25
f 25/25/25 26/26/26 27/27/27
f 26/26/26 28/28/28 27/27/27
f 27/27/27 28/28/28 29/29/29
f 28/28/28 30/30/30 29/29/29
f 29/29/29 30/30/30 31/31/31
f 30/30/30 32/32/32 31/31/31
f 31/31/31 32/32/32 33/33/33
f 32/32/32 34/34/34 33/33/33
f 33/33/33 34/34/34 35/35/35
f 34/34/34 36/36/36 35/35/35
f 35/35/35 36/36/36 37/37/37
f 36/36/36 38/38/38 37/37/37
f 37/37/37 38/38/38 39/39/39
f 38/38/38 40/40/40 39/39/39
f 41/41/41 42/42/42 43/43/43
f 42/42/42 44/44/44 43/43/43
f 43/43/43 44/44/44 45/45/45
f 44/44/44 46/46/46 45/45/45
f 45/45/45 46/46/46 47/47/47
f 46/46/46 48/48/48 47/47/47
f 47/47/47 48/48/48 49/49/49
f 48/48/48 50/50/50 49/49/49
f 49/49/49 50/50/50 51/51/51
f 50/50/50 52/52/52 51/51/51
f 51/51/51 52/52/52 53/53/53
f 52/52/52 54/54/54 53/53/53
f 53/53/53 54/54/54 55/55/55
f 54/54/54 56/56/56 55/55/55
f 55/55/55 56/56/56 57/57/57
f 56/56/56 58/58/58 57/57/57
f 57/57/57 58/58/58 59/59/59
f 58/58/58 60/60/60 59/59/59
f 59/59/59 60/60/60 61/61/61
f 60/60/60 62/62/62 61/61/61
f 63/63/63 64/64/64 65/65/65
f 64/64/64 66/66/66 65/65/65
f 65/65/65 66/66/66 67/67/67
f 66/66/66 68/68/68 67/67/67
f 67/67/67 68/68/68 69/69/69
f 68/68/68 70/70/70 69/69/69
f 69/69/69 70/70/70 71/71/71
f 70/70/70 72/72/72 71/71/71
f 71/71/71 72/72/72 73/73/73
f 72/72/72 74/74/74 73/73/73
f 73/73/73 74/74/74 75/75/75
f 74/74/74 76/76/76 75/75/75
f 75/75/75 76/76/76 77/77/77
f 76/76/76 78/78/78 77/77/77
f 77/77/77 78/78/78 79/79/79
f 78/78/78 80/80/80 79/79/79
f 79/79/79 80/80/80 81/81/81
f 80/80/80 82/82/82 81/81/81
f 81/81/81 82/82/82 83/83/83
f 82/82/82 84/84/84 83/83/83
f 85/85/85 86/86/86 87/87/87
f 86/86/86 88/88/88 87/87/87
f 87/87/87 88/88/88 89/89/89
f 88/88/88 90/90/90 89/89/89
f 89/89/89 90/90/90 91/91/91
f 90/90/90 92/92/92 91/91/91
f 91/91/91 92/92/92 93/93/93
f 92/92/92 94/94/94 93/93/93
f 93/93/93 94/94/94 95/95/95
f 94/94/94 96/96/96 95/95/95
f 95/95/95 96/96/96 97/97/97
f 96/96/96 98/98/98 97/97/97
f 97/97/97 98/98/98 99/99/99
f 98/98/98 100/100/100 99/99/99
f 99/99/99 100/100/100 101/101/101
f 100/100/100 102/102/102 101/101/101
f 101/101/101 102/102/102 103/103/103
f 102/102/102 104/104/104 103/103/103
f 103/103/103 104/104/104 105/105/105
f 104/104/104 106/106/106 105/105/105
f 107/107/107 108/108/108 109/109/109
f 108/108/108 110/110/110 109/109/109
f 109/109/109 110/110/110 111/111/111
f 110/110/110 112/112/112 111/111/111
f 111/111/111 112/112/112 113/113/113
f 112/112/112 114/114/114 113/113/113
f 113/113/113 114/114/114 115/115/115
f 114/114/114 116/116/116 115/115/115
f 115/115/115 116/116/116 117/117/117
f 116/116/116 118/118/118 117/117/117
f 117/117/117 118/118/118 119/119/119
f 118/118/118 120/120/120 119/119/119
f 119/119/119 120/120/120 121/121/121
f 120/120/120 122/122/122 121/121/121
f 121/121/121 122/122/122 123/123/123
f 122/122/122 124/124/124 123/123/123
f 123/123/123 124/124/124 125/125/125
f 124/124/124 126/126/126 125/125/125
f 125/125/125 126/126/126 127/127/127
f 126/126/126 128/128/128 127/127/127
f 129/129/129 130/130/130 131/131/131
f 130/130/130 132/132/132 131/131/131
f 131/131/131 132/132/132 133/133/133
f 132/132/132 134/134/134 133/133/133
f 133/133/133 134/134/134 135/135/135
f 134/134/134 136/136/136 135/135/135
f 135/135/135 136/136/136 137/137/137
f 136/136/136 138/138/138 137/137/137
f 137/137/137 138/138/138 139/139/139
f 138/138/138 140/140/140 139/139/139
f 139/139/139 140/140/140 141/141/141
f 140/140/140 142/142/142 141/141/141
f 141/141/141 142/142/142 143/143/143
f 142/142/142 144/144/144 143/143/143
f 143/143/143 144/144/144 145/145/145
f 144/144/144 146/146/146 145/145/145
f 145/145/145 146/146/146 147/147/147
f 146/146/146 148/148/148 147/147/147
f 147/147/147 148/148/148 149/149/149
f 148/148/148 150/150/150 149/149/149
f 151/151/151 152/152/152 153/153/153
f 152/152/152 154/154/154 153/153/153
f 153/153/153 154/154/154 155/155/155
f 154/154/154 156/156/156 155/155/155
f 155/155/155 156/156/156 157/157/157
f 156/156/156 158/158/158 157/157/157
f 157/157/157 158/158/158 159/159/159
f 158/158/158 160/160/160 159/159/159
f 159/159/159 160/160/160 161/161/161
f 160/160/160 162/162/162 161/161/161
f 161/161/161 162/162/162 163/163/163
f 162/162/162 164/164/164 163/163/163
f 163/163/163 164/164/164 165/165/165
f 164/164/164 166/166/166 165/165/165
f 165/165/165 166/166/166 167/167/167
f 166/166/166 168/168/168 167/167/167
f 167/167/167 168/168/168 169/169/169
f 168/168/168 170/170/170 169/169/169
f 169/169/169 170/170/170 171/171/171
f 170/170/170 172/172/172 171/171/171
f 173/173/173 174/174/174 175/175/175
f 174/174/174 176/176/176 175/175/175
f 175/175/175 176/176/176 177/177/177
f 176/176/176 178/178/178 177/177/177
f 177/177/177 178/178/178 179/179/179
f 178/178/178 180/180/180 179/179/179
f 179/179/179 180/180/180 181/181/181
f 180/180/180 182/182/182 181/181/181
f 181/181/181 182/182/182 183/183/183
f 182/182/182 184/184/184 183/183/183
f 183/183/183 184/184/184 185/185/185
f 184/184/184 186/186/186 185/185/185
f 185/185/185 186/186/186 187/187/187
f 186/186/186 188/188/188 187/187/187
f 187/187/187 188/188/188 189/189/189
f 188/188/188 190/190/190 189/189/189
f 189/189/189 190/190/190 191/191/191
f 190/190/190 192/192/192 191/191/191
f 191/191/191 192/192/192 193/193/193
f 192/192/192 194/194/194 193/193/193
