{
	"asset":{
		"generator":"Khronos glTF Blender I/O v5.0.21",
		"version":"2.0"
	},
	"scene":0,
	"scenes":[
		{
			"name":"Scene",
			"nodes":[
				0
			]
		}
	],
	"nodes":[
		{
			"mesh":0,
			"name":"flat_grass",
			"translation":[
				0,
				0,
				-1
			]
		}
	],
	"materials":[
		{
			"alphaMode":"BLEND",
			"doubleSided":true,
			"name":"Grass_Type_1",
			"pbrMetallicRoughness":{
				"baseColorTexture":{
					"index":0
				},
				"metallicFactor":0,
				"roughnessFactor":0.5
			}
		}
	],
	"meshes":[
		{
			"name":"Plane",
			"primitives":[
				{
					"attributes":{
						"POSITION":0,
						"NORMAL":1,
						"TEXCOORD_0":2
					},
					"indices":3,
					"material":0
				}
			]
		}
	],
	"textures":[
		{
			"sampler":0,
			"source":0
		}
	],
	"images":[
		{
			"mimeType":"image/png",
			"name":"Grass_Pixel_Art_2",
			"uri":"textures/Grass_Pixel_Art_2.png"
		}
	],
	"accessors":[
		{
			"bufferView":0,
			"componentType":5126,
			"count":137,
			"max":[
				0.9439343810081482,
				0,
				1
			],
			"min":[
				-0.8776788115501404,
				0,
				-0.25248026847839355
			],
			"type":"VEC3"
		},
		{
			"bufferView":1,
			"componentType":5126,
			"count":137,
			"type":"VEC3"
		},
		{
			"bufferView":2,
			"componentType":5126,
			"count":137,
			"type":"VEC2"
		},
		{
			"bufferView":3,
			"componentType":5123,
			"count":270,
			"type":"SCALAR"
		}
	],
	"bufferViews":[
		{
			"buffer":0,
			"byteLength":1644,
			"byteOffset":0,
			"target":34962
		},
		{
			"buffer":0,
			"byteLength":1644,
			"byteOffset":1644,
			"target":34962
		},
		{
			"buffer":0,
			"byteLength":1096,
			"byteOffset":3288,
			"target":34962
		},
		{
			"buffer":0,
			"byteLength":540,
			"byteOffset":4384,
			"target":34963
		}
	],
	"samplers":[
		{
			"magFilter":9729,
			"minFilter":9987
		}
	],
	"buffers":[
		{
			"byteLength":4924,
			"uri":"pixel_grass.bin"
		}
	]
}
